<?xml version="1.0" encoding="UTF-8" standalone="no"?>
<!-- Generator: Adobe Illustrator 24.2.3, SVG Export Plug-In . SVG Version: 6.00 Build 0)  -->

<svg
   version="1.1"
   id="Layer_1"
   x="0px"
   y="0px"
   viewBox="0 0 1038.6 285.33783"
   xml:space="preserve"
   sodipodi:docname="logo.svg"
   inkscape:version="1.1.2 (0a00cf5339, 2022-02-04)"
   width="1038.6"
   height="285.33783"
   xmlns:inkscape="http://www.inkscape.org/namespaces/inkscape"
   xmlns:sodipodi="http://sodipodi.sourceforge.net/DTD/sodipodi-0.dtd"
   xmlns="http://www.w3.org/2000/svg"
   xmlns:svg="http://www.w3.org/2000/svg"><defs
   id="defs1313" /><sodipodi:namedview
   id="namedview1311"
   pagecolor="#ffffff"
   bordercolor="#666666"
   borderopacity="1.0"
   inkscape:pageshadow="2"
   inkscape:pageopacity="0.0"
   inkscape:pagecheckerboard="0"
   showgrid="false"
   inkscape:zoom="1.0979846"
   inkscape:cx="517.31145"
   inkscape:cy="95.174377"
   inkscape:window-width="1920"
   inkscape:window-height="999"
   inkscape:window-x="0"
   inkscape:window-y="44"
   inkscape:window-maximized="1"
   inkscape:current-layer="layer1" />
<style
   type="text/css"
   id="style1188">
	.st0{fill:#FFFFFF;}
	.st1{fill:url(#SVGID_1_);}
	.st2{fill:url(#SVGID_2_);}
	.st3{fill:url(#SVGID_3_);}
	.st4{fill:url(#SVGID_4_);}
	.st5{fill:url(#SVGID_5_);}
	.st6{fill:url(#SVGID_6_);}
	.st7{fill:url(#SVGID_7_);}
	.st8{fill:url(#SVGID_8_);}
	.st9{fill:url(#SVGID_9_);}
	.st10{fill:url(#SVGID_10_);}
	.st11{fill:url(#SVGID_11_);}
	.st12{fill:url(#SVGID_12_);}
	.st13{fill:url(#SVGID_13_);}
	.st14{fill:url(#SVGID_14_);}
	.st15{fill:url(#SVGID_15_);}
	.st16{fill:url(#SVGID_16_);}
	.st17{fill:url(#SVGID_17_);}
	.st18{fill:url(#SVGID_18_);}
	.st19{fill:url(#SVGID_19_);}
	.st20{fill:url(#SVGID_20_);}
	.st21{fill:url(#SVGID_21_);}
	.st22{fill:url(#SVGID_22_);}
	.st23{fill:url(#SVGID_23_);}
	.st24{fill:url(#SVGID_24_);}
	.st25{fill:url(#SVGID_25_);}
	.st26{fill:url(#SVGID_26_);}
	.st27{fill:url(#SVGID_27_);}
	.st28{fill:url(#SVGID_28_);}
	.st29{fill:url(#SVGID_29_);}
	.st30{fill:url(#SVGID_30_);}
	.st31{fill:url(#SVGID_31_);}
	.st32{fill:url(#SVGID_32_);}
	.st33{fill:url(#SVGID_33_);}
	.st34{fill:url(#SVGID_34_);}
	.st35{fill:url(#SVGID_35_);}
	.st36{fill:url(#SVGID_36_);}
	.st37{fill:url(#SVGID_37_);}
	.st38{fill:url(#SVGID_38_);}
	.st39{fill:url(#SVGID_39_);}
	.st40{fill:url(#SVGID_40_);}
</style>

<g
   inkscape:groupmode="layer"
   id="layer1"
   inkscape:label="main"
   style="display:inline"
   transform="translate(25.810656,-84.981245)"><g
     id="g1308"
     transform="matrix(1.0945477,0,0,1.0945477,-52.834617,-35.720461)">
	<g
   id="g1204">
		<path
   class="st0"
   d="M 387.4,179.41 H 340 v 119.56 h 46.32 c 36.58,0 58.67,-26.41 58.67,-61.28 -0.01,-35.35 -22.77,-58.28 -57.59,-58.28 z m -2.17,98.67 h -19.38 v -77.79 h 19.54 c 23.41,0 32.9,17.93 32.9,37.46 -0.01,23.29 -10.14,40.33 -33.06,40.33 z"
   id="path1190"
   style="fill:#18c7ec;fill-opacity:1" />
		<path
   class="st0"
   d="m 561.84,235.92 c 8.07,-3.69 15.22,-12.44 15.22,-25.92 0,-15.53 -10.96,-30.59 -39.85,-30.59 h -52.23 v 119.56 h 54 c 25.43,0 41.5,-15.33 41.5,-35.79 0,-15.72 -10.58,-24.22 -18.64,-27.26 z m -51.49,-36.54 h 24.63 c 9.97,0 16.62,4.52 16.62,13.28 0,8.4 -5.08,13.91 -17.36,13.91 H 510.35 Z M 533.67,279 h -23.32 v -32.46 h 23.18 c 14.22,0 20.44,6.15 20.44,15.78 0,10.84 -6.33,16.68 -20.3,16.68 z"
   id="path1192"
   style="fill:#18c7ec;fill-opacity:1" />
		<rect
   x="617.98999"
   y="179.41"
   class="st0"
   width="84.769997"
   height="21.190001"
   id="rect1194"
   style="fill:#18c7ec;fill-opacity:1" />
		<polygon
   class="st0"
   points="643.08,277.78 643.08,247.4 700.25,247.4 700.25,226.22 617.99,226.22 617.99,298.97 703.08,298.97 706.15,277.78 "
   id="polygon1196"
   style="fill:#18c7ec;fill-opacity:1" />
		<rect
   x="741.98999"
   y="179.41"
   class="st0"
   width="84.769997"
   height="21.190001"
   id="rect1198"
   style="fill:#18c7ec;fill-opacity:1" />
		<polygon
   class="st0"
   points="767.08,277.78 767.08,247.4 824.25,247.4 824.25,226.22 741.99,226.22 741.99,298.97 827.08,298.97 830.15,277.78 "
   id="polygon1200"
   style="fill:#18c7ec;fill-opacity:1" />
		<polygon
   class="st0"
   points="891.84,179.41 865.99,179.41 865.99,298.97 948.44,298.97 951.39,277.78 891.84,277.78 "
   id="polygon1202"
   style="fill:#18c7ec;fill-opacity:1" />
	</g>
	<g
   id="g1306">
		<g
   id="g1304">
			<path
   class="st0"
   d="m 92.03,325.9 c 0,0.23 -0.03,0.46 -0.06,0.7 -0.32,2.06 -2,3.57 -4.01,3.72 -2.12,-1.48 -3.34,-4.09 -2.93,-6.82 0.09,-0.46 0.17,-0.93 0.35,-1.34 0.87,-0.49 1.86,-0.73 2.9,-0.58 0.55,0.09 1.05,0.26 1.51,0.52 0.23,0.12 0.44,0.29 0.64,0.46 0.23,0.2 0.46,0.41 0.64,0.64 0.03,0.06 0.06,0.09 0.09,0.15 0.17,0.2 0.29,0.41 0.38,0.61 0.06,0.06 0.09,0.15 0.12,0.2 0.12,0.26 0.2,0.52 0.26,0.81 0.08,0.29 0.11,0.61 0.11,0.93 z"
   id="path1206" />
			<g
   id="g1217">
				
					<linearGradient
   id="SVGID_1_"
   gradientUnits="userSpaceOnUse"
   x1="121.5131"
   y1="145.98711"
   x2="316.28769"
   y2="-47.181099"
   gradientTransform="matrix(0.9887,0.15,-0.15,0.9887,-30.2606,135.5794)">
					<stop
   offset="0"
   style="stop-color:#3059E4"
   id="stop1208" />
					<stop
   offset="0.5"
   style="stop-color:#34D1F9"
   id="stop1210" />
					<stop
   offset="1"
   style="stop-color:#FAEE78"
   id="stop1212" />
				</linearGradient>
				<path
   class="st1"
   d="m 206.05,292.24 c -1.92,-1.37 4.09,-9.58 -6.62,-11.21 -0.49,-0.06 -1.05,-0.12 -1.63,-0.17 -11.85,-0.96 -28.11,15.39 -40.46,26.52 -0.61,0.52 -0.46,1.51 0.26,1.83 2.99,1.34 5.43,3.8 6.62,7.12 0.76,2.15 0.9,4.41 0.46,6.51 -0.12,0.67 0.32,1.28 0.93,1.37 h 0.35 c 14.32,-2.35 24.6,-8.02 30.44,-10.86 6.54,-3.22 15.74,-16.81 9.65,-21.11 z m 0,0 c -1.92,-1.37 4.09,-9.58 -6.62,-11.21 -0.49,-0.06 -1.05,-0.12 -1.63,-0.17 -11.85,-0.96 -28.11,15.39 -40.46,26.52 -0.61,0.52 -0.46,1.51 0.26,1.83 2.99,1.34 5.43,3.8 6.62,7.12 0.76,2.15 0.9,4.41 0.46,6.51 -0.12,0.67 0.32,1.28 0.93,1.37 h 0.35 c 14.32,-2.35 24.6,-8.02 30.44,-10.86 6.54,-3.22 15.74,-16.81 9.65,-21.11 z m 55.7,-90.44 c -2.12,-5.11 -4.56,-9.93 -7.23,-14.49 -2.96,-5 -6.27,-9.67 -9.85,-14 l -0.03,-0.03 c -0.81,-1.05 -1.66,-2 -2.53,-2.99 -0.61,-0.73 -1.25,-1.45 -1.92,-2.15 -1.92,-1.97 -3.83,-3.86 -5.81,-5.69 -0.03,-0.03 -0.03,-0.06 -0.06,-0.06 -0.23,-0.23 -0.49,-0.46 -0.73,-0.7 -0.03,0 -0.03,-0.03 -0.06,-0.06 -0.03,-0.03 -0.09,-0.06 -0.12,-0.09 h -0.03 c -0.03,-0.06 -0.06,-0.06 -0.09,-0.09 -5.49,-4.91 -11.36,-9.21 -17.54,-12.84 -0.15,-0.12 -0.26,-0.2 -0.32,-0.23 l -0.03,-0.03 h -0.03 c -1.92,-1.13 -3.86,-2.21 -5.84,-3.25 -0.99,-0.49 -1.97,-0.99 -2.96,-1.48 -0.17,-0.09 -0.35,-0.17 -0.52,-0.26 -0.55,-0.23 -1.07,-0.49 -1.6,-0.73 l -0.09,-0.03 c -0.46,-0.23 -0.96,-0.44 -1.42,-0.64 -0.09,-0.03 -0.17,-0.09 -0.26,-0.12 -0.32,-0.15 -0.7,-0.29 -1.05,-0.44 -0.23,-0.12 -0.49,-0.23 -0.76,-0.32 -0.32,-0.15 -0.67,-0.29 -0.99,-0.44 -0.23,-0.09 -0.44,-0.17 -0.64,-0.23 -0.26,-0.12 -0.52,-0.23 -0.81,-0.32 -0.73,-0.29 -1.48,-0.58 -2.24,-0.84 -0.49,-0.2 -0.99,-0.38 -1.48,-0.55 -0.12,-0.06 -0.26,-0.09 -0.38,-0.12 -0.87,-0.32 -1.8,-0.64 -2.7,-0.9 -0.15,-0.06 -0.26,-0.09 -0.41,-0.15 h -0.03 c -0.35,-0.15 -0.73,-0.23 -1.1,-0.35 -0.35,-0.12 -0.7,-0.23 -1.05,-0.32 -0.23,-0.09 -0.49,-0.17 -0.73,-0.23 -0.26,-0.09 -0.52,-0.15 -0.81,-0.23 -0.06,-0.03 -0.12,-0.03 -0.2,-0.06 -0.03,0 -0.09,-0.03 -0.12,-0.03 -0.03,-0.03 -0.09,-0.03 -0.12,-0.06 -0.2,-0.06 -0.41,-0.09 -0.64,-0.15 -0.09,-0.03 -0.2,-0.06 -0.29,-0.09 -0.15,-0.06 -0.29,-0.09 -0.44,-0.12 -0.44,-0.12 -0.84,-0.23 -1.28,-0.35 -0.09,0 -0.17,-0.03 -0.26,-0.06 -0.58,-0.15 -1.16,-0.29 -1.77,-0.44 -0.12,-0.03 -0.2,-0.06 -0.32,-0.09 -0.41,-0.09 -0.84,-0.17 -1.25,-0.29 -0.12,-0.03 -0.26,-0.06 -0.38,-0.06 -0.29,-0.09 -0.58,-0.15 -0.87,-0.2 -0.17,-0.03 -0.32,-0.06 -0.46,-0.09 -0.06,-0.03 -0.12,-0.03 -0.17,-0.06 -0.52,-0.09 -1.02,-0.2 -1.54,-0.29 -0.49,-0.12 -0.99,-0.2 -1.48,-0.29 -0.03,0 -0.09,-0.03 -0.12,-0.03 -0.46,-0.09 -0.96,-0.15 -1.42,-0.23 l -0.23,-0.03 c -0.49,-0.09 -0.99,-0.17 -1.48,-0.23 -0.52,-0.09 -1.07,-0.17 -1.63,-0.26 h -0.12 c -0.38,-0.06 -0.73,-0.09 -1.07,-0.15 -0.32,-0.06 -0.67,-0.09 -0.99,-0.12 -0.32,-0.06 -0.67,-0.09 -1.02,-0.15 -0.35,-0.03 -0.7,-0.06 -1.02,-0.09 -0.44,-0.06 -0.84,-0.09 -1.28,-0.15 h -0.15 c 0,0 -0.03,0 -0.06,0 -0.52,-0.06 -1.05,-0.12 -1.6,-0.15 h -0.03 c -0.44,-0.03 -0.9,-0.06 -1.37,-0.09 -0.76,-0.06 -1.54,-0.12 -2.32,-0.15 -0.49,-0.03 -1.02,-0.06 -1.54,-0.06 -0.49,-0.03 -0.99,-0.03 -1.51,-0.06 h -0.87 c -0.81,-0.03 -1.63,-0.03 -2.47,-0.03 -0.32,0 -0.64,0.03 -0.96,0.03 -0.38,0 -0.76,0 -1.13,0.03 -0.46,0 -0.9,0 -1.37,0.03 -0.46,0 -0.93,0.03 -1.39,0.06 -0.32,0 -0.64,0.03 -0.96,0.06 h -0.09 c -0.99,0.06 -2,0.12 -2.99,0.2 -1.02,0.09 -2,0.17 -3.02,0.29 -0.52,0.06 -1.07,0.12 -1.6,0.2 -0.35,0.03 -0.7,0.09 -1.05,0.12 -0.23,0.03 -0.49,0.06 -0.73,0.09 -0.38,0.06 -0.75,0.12 -1.13,0.17 l -0.73,0.12 c -0.26,0.06 -0.49,0.09 -0.76,0.12 -0.23,0.06 -0.46,0.09 -0.7,0.12 -0.23,0.06 -0.46,0.09 -0.7,0.12 -0.06,0.03 -0.15,0.06 -0.23,0.06 -0.46,0.09 -0.9,0.17 -1.34,0.26 -0.46,0.09 -0.96,0.17 -1.42,0.26 -0.38,0.09 -0.73,0.17 -1.07,0.23 -0.26,0.06 -0.55,0.12 -0.78,0.17 -0.03,0 -0.09,0.03 -0.12,0.03 -0.17,0.06 -0.38,0.09 -0.58,0.15 -0.17,0.03 -0.38,0.09 -0.58,0.12 -0.38,0.12 -0.78,0.2 -1.16,0.32 -0.35,0.06 -0.7,0.17 -1.05,0.26 -0.09,0.03 -0.2,0.06 -0.29,0.09 -0.46,0.12 -0.9,0.23 -1.34,0.35 -0.9,0.26 -1.77,0.52 -2.67,0.78 -0.12,0.03 -0.23,0.09 -0.38,0.12 -0.23,0.09 -0.46,0.15 -0.73,0.23 -0.58,0.17 -1.16,0.38 -1.74,0.58 -0.29,0.12 -0.58,0.2 -0.9,0.32 -0.32,0.12 -0.64,0.23 -0.96,0.35 -0.41,0.15 -0.78,0.29 -1.16,0.44 -0.23,0.09 -0.49,0.17 -0.73,0.26 -0.38,0.15 -0.75,0.32 -1.16,0.46 -0.32,0.15 -0.64,0.26 -0.96,0.41 -0.35,0.15 -0.7,0.29 -1.02,0.44 -0.7,0.32 -1.42,0.61 -2.12,0.93 -0.73,0.32 -1.42,0.67 -2.09,0.99 -0.29,0.15 -0.58,0.29 -0.87,0.44 -0.55,0.32 -1.13,0.61 -1.71,0.9 -0.78,0.41 -1.57,0.84 -2.35,1.31 -0.26,0.15 -0.55,0.29 -0.81,0.46 -0.44,0.26 -0.84,0.52 -1.28,0.76 -0.26,0.17 -0.55,0.35 -0.81,0.52 -0.38,0.23 -0.73,0.46 -1.1,0.7 -0.32,0.2 -0.64,0.44 -0.96,0.64 -0.75,0.49 -1.51,1.02 -2.24,1.54 -0.44,0.32 -0.87,0.61 -1.28,0.93 -0.41,0.29 -0.76,0.58 -1.13,0.87 -0.44,0.32 -0.84,0.64 -1.25,0.99 -1.89,1.48 -3.66,3.05 -5.4,4.76 H 86.5 c -0.09,0.09 -0.2,0.2 -0.32,0.35 -0.06,0 -0.09,0.06 -0.15,0.12 -0.46,0.44 -0.93,0.9 -1.36,1.36 -0.73,0.76 -0.78,1.77 -0.38,2.56 0.03,0.03 0.06,0.09 0.09,0.15 0,0 0,0.03 0.03,0.03 0.09,0.17 0.2,0.35 0.38,0.49 h 0.03 c 0.12,0.09 0.23,0.17 0.35,0.26 0.23,0.17 0.52,0.26 0.84,0.32 0.09,0 0.17,0.03 0.26,0.03 h 0.32 c 0.15,-0.03 0.26,-0.06 0.41,-0.12 0.03,0 0.03,0 0.06,0 1.22,-0.38 2.58,-0.78 4.04,-1.19 0.15,-0.03 0.29,-0.06 0.41,-0.09 0.26,-0.09 0.49,-0.15 0.73,-0.2 0.38,-0.09 0.73,-0.17 1.13,-0.29 0.03,0 0.06,0 0.12,-0.03 0.41,-0.09 0.84,-0.2 1.28,-0.29 0.46,-0.12 0.9,-0.2 1.37,-0.29 0.29,-0.09 0.61,-0.17 0.9,-0.23 0.26,-0.03 0.52,-0.09 0.78,-0.15 0.15,-0.03 0.29,-0.06 0.41,-0.09 1.63,-0.32 3.31,-0.61 5.05,-0.87 0.23,-0.03 0.44,-0.06 0.67,-0.12 0.23,-0.03 0.46,-0.06 0.67,-0.09 0.38,-0.03 0.73,-0.09 1.1,-0.15 0.46,-0.06 0.93,-0.12 1.39,-0.17 0.09,0 0.17,0 0.26,-0.03 0.44,-0.06 0.9,-0.09 1.36,-0.15 0.03,0 0.03,0 0.06,0 0.96,-0.09 1.92,-0.17 2.9,-0.23 0.49,-0.06 1.02,-0.09 1.51,-0.12 0.2,0 0.41,-0.03 0.64,-0.03 0.55,-0.03 1.1,-0.06 1.66,-0.09 h 0.17 c 0.61,-0.03 1.25,-0.03 1.86,-0.06 0.78,0 1.6,-0.03 2.41,-0.03 0.61,0.03 1.19,0.03 1.83,0.03 0.61,0 1.22,0.03 1.86,0.03 0.61,0.03 1.25,0.06 1.86,0.09 0.64,0.03 1.28,0.09 1.92,0.12 h 0.03 c 0.67,0.06 1.31,0.12 2,0.17 h 0.2 c 3.78,0.35 7.67,0.9 11.7,1.71 h 0.09 c 0,0 0.06,0.03 0.15,0.03 0.2,0.06 0.52,0.12 0.81,0.17 0.06,0 0.15,0.03 0.2,0.03 0.03,0 0.09,0.03 0.12,0.03 0.23,0.06 0.46,0.09 0.7,0.15 0.09,0.03 0.2,0.06 0.29,0.09 0.09,0 0.2,0.03 0.29,0.06 0.35,0.09 0.67,0.15 0.99,0.23 0.32,0.06 0.64,0.15 0.96,0.23 0.06,0 0.12,0.03 0.17,0.03 0.06,0.03 0.09,0.03 0.15,0.06 h 0.09 c 0.46,0.15 0.96,0.26 1.42,0.38 0.06,0 0.09,0.03 0.15,0.03 0.44,0.12 0.87,0.23 1.31,0.38 h 0.09 c 0.46,0.15 0.96,0.29 1.45,0.44 1.02,0.29 2.06,0.61 3.11,0.96 0.2,0.06 0.44,0.15 0.67,0.2 0.09,0.03 0.17,0.06 0.26,0.09 0.35,0.15 0.73,0.26 1.07,0.38 0.29,0.09 0.55,0.17 0.81,0.29 0.17,0.06 0.35,0.12 0.55,0.2 1.8,0.64 3.6,1.34 5.43,2.12 0.46,0.17 0.93,0.38 1.37,0.58 0.41,0.17 0.78,0.35 1.19,0.52 0.52,0.23 1.05,0.46 1.57,0.73 0.46,0.2 0.93,0.44 1.39,0.67 0.03,0 0.06,0.03 0.06,0.03 0.73,0.35 1.48,0.73 2.21,1.1 1.34,0.67 2.67,1.39 4.04,2.15 0.23,0.12 0.44,0.26 0.67,0.38 0.9,0.52 1.77,1.05 2.67,1.57 0.09,0.06 0.2,0.12 0.29,0.17 0.44,0.23 0.84,0.49 1.25,0.75 1.16,0.73 2.32,1.48 3.49,2.27 h 0.03 c 0.32,0.2 0.61,0.41 0.93,0.61 0.41,0.29 0.81,0.55 1.22,0.84 0.17,0.12 0.38,0.26 0.55,0.38 0.61,0.46 1.19,0.9 1.77,1.31 h 0.03 c 0.7,0.55 1.39,1.07 2.06,1.6 0.29,0.17 0.55,0.41 0.81,0.64 0.35,0.26 0.67,0.52 0.99,0.78 0.06,0.06 0.15,0.12 0.2,0.17 0.26,0.2 0.49,0.41 0.73,0.61 0.49,0.44 0.99,0.87 1.45,1.28 0.44,0.41 0.84,0.78 1.25,1.22 0.26,0.23 0.49,0.46 0.76,0.7 0.29,0.29 0.61,0.61 0.9,0.9 0.2,0.2 0.41,0.41 0.61,0.64 0.61,0.58 1.13,1.16 1.66,1.77 0.26,0.26 0.49,0.55 0.73,0.81 0.03,0.03 0.06,0.09 0.12,0.12 0.46,0.55 0.9,1.07 1.34,1.63 0.06,0.09 0.12,0.17 0.17,0.26 0.29,0.38 0.55,0.76 0.84,1.13 1.83,2.47 3.28,4.94 4.33,7.43 0.23,0.46 0.44,0.93 0.58,1.42 0.09,0.17 0.17,0.35 0.2,0.52 0.03,0.06 0.06,0.12 0.09,0.17 0.09,0.23 0.17,0.46 0.26,0.7 0.03,0.06 0.03,0.15 0.06,0.2 0,0.03 0,0.06 0.03,0.12 0.09,0.26 0.2,0.52 0.26,0.76 0.2,0.7 0.38,1.39 0.55,2.09 0.15,0.61 0.26,1.22 0.38,1.86 0.08,0.57 0.16,1.14 0.22,1.7 0.01,0.08 0.01,0.16 0.02,0.24 v 0.12 c 0.12,1.22 0.15,2.41 0.12,3.63 0,0.2 0,0.41 -0.03,0.61 0,0.26 0,0.52 -0.03,0.78 0,0.17 -0.03,0.35 -0.03,0.49 -0.03,0.23 -0.06,0.44 -0.09,0.64 0,0.03 0,0.03 0,0.03 v 0.15 c -3.17,27.5 -43.19,55.62 -106.79,77.98 -1.92,0.7 -3.75,1.37 -5.61,2.12 -0.06,0 -0.09,0 -0.12,0.03 -0.03,0.03 -0.06,0.03 -0.09,0.03 -29.48,11.5 -47.77,27.65 -47.77,39.5 0,0.29 0,0.55 0.03,0.84 0.23,3.22 1.22,4.65 2.41,5.4 2.44,0.46 4.85,0.84 7.26,1.16 5.37,0.75 10.75,1.07 16.03,0.87 5.26,-0.26 10.46,-1.07 15.42,-2.88 2.44,-0.81 4.76,-1.86 7.06,-3.11 1.6,-0.87 3.08,1.25 1.77,2.5 -2.03,1.92 -4.36,3.6 -6.85,4.97 -5.26,2.88 -11.24,4.3 -17.14,4.59 -5.92,0.2 -11.79,-0.61 -17.31,-2.29 -0.12,-0.03 -0.23,-0.06 -0.35,-0.12 6.56,13.56 36.33,19.43 69.32,10.98 69.64,-17.8 169,-78.3 135.54,-158.92 z M 99.02,325.61 c -0.58,3.86 -4.18,6.51 -8.04,5.92 -1.13,-0.17 -2.15,-0.61 -3.02,-1.22 2,-0.15 3.69,-1.66 4.01,-3.72 0.03,-0.23 0.06,-0.46 0.06,-0.7 0,-0.32 -0.03,-0.64 -0.12,-0.93 -0.06,-0.29 -0.15,-0.55 -0.26,-0.81 -0.03,-0.06 -0.06,-0.15 -0.12,-0.2 -0.09,-0.2 -0.2,-0.41 -0.38,-0.61 -0.03,-0.06 -0.06,-0.09 -0.09,-0.15 -0.17,-0.23 -0.41,-0.44 -0.64,-0.64 -0.2,-0.17 -0.41,-0.32 -0.64,-0.46 -0.46,-0.26 -0.96,-0.44 -1.51,-0.52 -1.05,-0.15 -2.03,0.09 -2.9,0.58 h -0.03 c 1.13,-3.14 4.36,-5.11 7.75,-4.62 3.87,0.58 6.52,4.18 5.93,8.08 z m 99.59,-7.76 c -0.58,0.29 -1.19,0.58 -1.86,0.9 -6.1,3.05 -16.32,8.16 -29.97,10.4 -0.64,0.09 -1.28,0.12 -1.92,0 -1.66,-0.23 -3.14,-1.16 -4.1,-2.53 -0.96,-1.39 -1.34,-3.14 -1.02,-4.79 0.26,-1.28 0.15,-2.58 -0.29,-3.83 -0.67,-1.89 -2.06,-3.37 -3.89,-4.18 -1.92,-0.84 -3.25,-2.58 -3.57,-4.65 -0.32,-2.06 0.41,-4.15 1.97,-5.55 1.34,-1.22 2.73,-2.5 4.15,-3.8 12.81,-11.7 27.33,-25.01 40.08,-23.99 0.7,0.06 1.36,0.15 1.97,0.23 8.13,1.22 11.7,5.87 10.66,13.8 1.68,2 2.44,4.65 2.21,7.64 -0.59,7.78 -8.26,17.33 -14.42,20.35 z m 7.44,-25.61 c -1.92,-1.37 4.09,-9.58 -6.62,-11.21 -0.49,-0.06 -1.05,-0.12 -1.63,-0.17 -11.85,-0.96 -28.11,15.39 -40.46,26.52 -0.61,0.52 -0.46,1.51 0.26,1.83 2.99,1.34 5.43,3.8 6.62,7.12 0.76,2.15 0.9,4.41 0.46,6.51 -0.12,0.67 0.32,1.28 0.93,1.37 h 0.35 c 14.32,-2.35 24.6,-8.02 30.44,-10.86 6.54,-3.22 15.74,-16.81 9.65,-21.11 z"
   id="path1215"
   style="fill:url(#SVGID_1_)" />
			</g>
			
				<linearGradient
   id="SVGID_2_"
   gradientUnits="userSpaceOnUse"
   x1="295.29059"
   y1="-0.41240001"
   x2="129.82449"
   y2="148.5873"
   gradientTransform="matrix(0.9887,0.15,-0.15,0.9887,-30.2606,135.5794)">
				<stop
   offset="0"
   style="stop-color:#3059E4"
   id="stop1219" />
				<stop
   offset="0.5"
   style="stop-color:#34D1F9"
   id="stop1221" />
				<stop
   offset="1"
   style="stop-color:#FAEE78"
   id="stop1223" />
			</linearGradient>
			<path
   class="st2"
   d="m 237.17,228.88 c -0.8,0.83 -1.63,1.66 -2.5,2.5 -0.26,0.25 -0.53,0.51 -0.81,0.77 -0.27,0.25 -0.55,0.51 -0.83,0.77 -13.85,12.83 -33.35,24.29 -53.28,33.89 -29.18,14.06 -59.3,24.15 -74.07,28.76 -5.27,1.64 -8.58,2.59 -9.21,2.76 -0.05,0.02 -0.08,0.02 -0.1,0.03 h -0.01 c 0.02,-0.04 0.14,-0.24 0.35,-0.58 2.86,-4.71 22.84,-36.38 45.28,-40.63 24.25,-4.58 47.35,-2.42 56.56,-24.72 0.35,-0.83 0.7,-1.63 1.06,-2.38 0.54,-1.14 1.1,-2.2 1.68,-3.18 0.93,-1.58 1.9,-2.97 2.9,-4.19 0.02,-0.03 0.05,-0.07 0.07,-0.1 1.53,-1.86 3.11,-3.33 4.7,-4.51 0.01,0 0.01,-0.01 0.01,-0.01 l 0.03,-0.02 c 0.01,0 0.02,-0.01 0.03,-0.02 l 0.03,-0.02 c 7.8,-5.73 15.8,-4.42 17.9,-6.84 0,0 0.01,0 0.01,-0.01 2.64,-3.05 10.87,-10.75 10.24,-29.51 0,-0.02 0,-0.05 0,-0.08 0,-0.17 -0.01,-0.33 -0.02,-0.5 0,-0.01 0,-0.01 0,-0.02 -0.06,-1.55 -0.19,-3.18 -0.39,-4.89 -0.14,-1.22 -0.31,-2.48 -0.52,-3.77 l -0.19,-0.43 -3.28,-7.24 0.44,-2.97 0.04,-0.25 c 0.03,0.03 0.07,0.06 0.1,0.08 0,0 0,0.01 0.02,0.01 3.36,2.94 6.24,5.85 8.67,8.73 2.29,2.72 4.2,5.42 5.73,8.1 0.02,0.03 0.03,0.06 0.05,0.09 2.09,3.66 3.5,7.28 4.29,10.85 3.14,14.05 -3.25,27.36 -14.98,39.53 z"
   id="path1226"
   style="fill:url(#SVGID_2_)" />
			
				<linearGradient
   id="SVGID_3_"
   gradientUnits="userSpaceOnUse"
   x1="88.213799"
   y1="3.0785"
   x2="271.41119"
   y2="3.0785"
   gradientTransform="matrix(0.9887,0.15,-0.15,0.9887,-30.2606,135.5794)">
				<stop
   offset="0"
   style="stop-color:#18C9EC"
   id="stop1228" />
				<stop
   offset="1"
   style="stop-color:#003BFF"
   id="stop1230" />
			</linearGradient>
			<path
   class="st3"
   d="m 237.19,182.12 c -0.21,-0.92 -0.43,-1.83 -0.68,-2.72 -0.26,-0.93 -0.54,-1.83 -0.84,-2.72 -5.83,-17.24 -19.3,-27.6 -20.21,-28.29 -0.02,-0.01 -0.03,-0.02 -0.04,-0.03 l 0.09,0.04 c -1.08,-0.65 -2.17,-1.27 -3.27,-1.87 -0.42,-0.24 -0.85,-0.47 -1.28,-0.7 -1.62,-0.86 -3.25,-1.68 -4.9,-2.46 -0.53,-0.25 -1.05,-0.49 -1.58,-0.73 l -0.1,-0.04 c -0.46,-0.21 -0.93,-0.42 -1.4,-0.63 -0.09,-0.04 -0.17,-0.08 -0.26,-0.11 -0.35,-0.15 -0.7,-0.3 -1.04,-0.45 -0.26,-0.11 -0.51,-0.22 -0.77,-0.32 -0.33,-0.14 -0.66,-0.28 -0.99,-0.41 -0.21,-0.09 -0.42,-0.17 -0.63,-0.26 -0.27,-0.11 -0.53,-0.21 -0.8,-0.32 -0.74,-0.29 -1.48,-0.58 -2.23,-0.84 -0.5,-0.19 -1,-0.37 -1.51,-0.54 -1.16,-0.41 -2.32,-0.8 -3.49,-1.17 -0.37,-0.12 -0.74,-0.23 -1.1,-0.35 -0.35,-0.11 -0.7,-0.22 -1.05,-0.32 -0.25,-0.08 -0.49,-0.16 -0.74,-0.22 -0.26,-0.07 -0.52,-0.15 -0.79,-0.22 -0.07,-0.02 -0.14,-0.04 -0.21,-0.06 -0.04,-0.01 -0.08,-0.03 -0.13,-0.04 -0.04,-0.01 -0.08,-0.02 -0.12,-0.04 -0.2,-0.06 -0.41,-0.11 -0.62,-0.17 -0.1,-0.03 -0.21,-0.06 -0.31,-0.09 -0.14,-0.04 -0.28,-0.08 -0.42,-0.11 -0.42,-0.12 -0.85,-0.23 -1.28,-0.34 -0.08,-0.02 -0.17,-0.04 -0.26,-0.06 -0.59,-0.15 -1.17,-0.3 -1.77,-0.44 -0.12,-0.03 -0.23,-0.06 -0.34,-0.07 -0.42,-0.1 -0.83,-0.2 -1.25,-0.29 -0.12,-0.03 -0.25,-0.06 -0.37,-0.09 -0.29,-0.07 -0.58,-0.13 -0.87,-0.19 -0.16,-0.03 -0.31,-0.06 -0.46,-0.09 -0.06,-0.01 -0.12,-0.02 -0.17,-0.04 -0.51,-0.11 -1.03,-0.22 -1.54,-0.31 -0.49,-0.1 -0.98,-0.19 -1.47,-0.28 l -0.11,-0.02 c -0.48,-0.09 -0.96,-0.17 -1.43,-0.25 l -0.23,-0.04 c -0.49,-0.09 -0.99,-0.17 -1.48,-0.24 -0.53,-0.09 -1.08,-0.16 -1.62,-0.23 l -0.13,-0.02 c -0.36,-0.05 -0.7,-0.1 -1.06,-0.14 -0.33,-0.04 -0.66,-0.09 -0.99,-0.12 -0.34,-0.05 -0.68,-0.09 -1.02,-0.12 -0.07,-0.01 -0.13,-0.01 -0.2,-0.02 -0.28,-0.03 -0.55,-0.06 -0.83,-0.09 -0.42,-0.05 -0.84,-0.09 -1.25,-0.13 -0.05,-0.01 -0.1,-0.01 -0.15,-0.01 -0.02,0 -0.04,-0.01 -0.06,0 h -0.01 c -0.53,-0.06 -1.06,-0.1 -1.59,-0.14 h -0.03 c -0.46,-0.03 -0.91,-0.07 -1.36,-0.1 -0.77,-0.05 -1.55,-0.1 -2.33,-0.13 -0.51,-0.03 -1.03,-0.05 -1.54,-0.06 -0.5,-0.02 -1,-0.03 -1.51,-0.04 -0.29,0 -0.58,-0.01 -0.88,-0.01 -0.81,-0.01 -1.63,-0.02 -2.45,-0.01 -0.32,0 -0.65,0.01 -0.97,0.01 -0.38,0 -0.76,0.01 -1.14,0.02 -0.45,0.01 -0.9,0.02 -1.35,0.04 -0.46,0.02 -0.93,0.04 -1.4,0.06 -0.32,0.01 -0.64,0.04 -0.96,0.05 -0.03,0 -0.06,0 -0.09,0 -1,0.05 -2,0.13 -3,0.21 -1.01,0.08 -2.01,0.18 -3.01,0.29 -0.53,0.06 -1.07,0.12 -1.61,0.19 -0.34,0.04 -0.69,0.09 -1.03,0.14 -0.25,0.03 -0.49,0.06 -0.74,0.1 -0.37,0.05 -0.75,0.11 -1.12,0.16 l -0.74,0.11 c -0.25,0.04 -0.5,0.08 -0.74,0.12 -0.23,0.03 -0.47,0.07 -0.7,0.11 -0.23,0.03 -0.46,0.08 -0.69,0.12 -0.08,0.02 -0.17,0.03 -0.26,0.05 -0.44,0.08 -0.88,0.16 -1.31,0.25 -0.48,0.09 -0.96,0.19 -1.44,0.29 -0.36,0.07 -0.71,0.15 -1.07,0.23 -0.3,0.06 -0.59,0.13 -0.89,0.2 -0.2,0.04 -0.39,0.09 -0.58,0.14 -0.19,0.04 -0.39,0.09 -0.58,0.14 -0.39,0.09 -0.78,0.19 -1.16,0.28 -0.36,0.08 -0.71,0.17 -1.06,0.27 -0.1,0.03 -0.19,0.05 -0.29,0.08 -0.45,0.12 -0.89,0.24 -1.34,0.37 -0.89,0.24 -1.77,0.51 -2.66,0.78 -0.13,0.04 -0.25,0.08 -0.38,0.12 -0.24,0.07 -0.49,0.15 -0.73,0.23 -0.59,0.18 -1.16,0.38 -1.74,0.58 -0.3,0.1 -0.6,0.2 -0.9,0.31 -0.33,0.11 -0.66,0.23 -0.98,0.35 -0.39,0.14 -0.77,0.29 -1.16,0.43 -0.24,0.08 -0.49,0.18 -0.73,0.28 -0.38,0.14 -0.76,0.3 -1.14,0.45 -0.32,0.12 -0.65,0.26 -0.98,0.4 -0.34,0.14 -0.68,0.28 -1.02,0.43 -1.42,0.61 -2.83,1.26 -4.21,1.94 -0.86,0.43 -1.71,0.87 -2.56,1.31 -0.79,0.42 -1.57,0.85 -2.35,1.3 -0.28,0.15 -0.55,0.31 -0.83,0.48 -0.43,0.25 -0.85,0.5 -1.28,0.76 -0.27,0.17 -0.55,0.34 -0.82,0.51 -0.37,0.23 -0.73,0.46 -1.09,0.7 -0.33,0.21 -0.65,0.42 -0.98,0.65 -0.75,0.5 -1.49,1.01 -2.22,1.53 -0.44,0.31 -0.87,0.62 -1.29,0.94 -0.38,0.29 -0.76,0.57 -1.13,0.86 -0.42,0.32 -0.83,0.65 -1.24,0.98 -1.87,1.51 -3.67,3.1 -5.39,4.78 -0.12,0.11 -0.24,0.22 -0.34,0.34 0,0 0,0 -0.01,0 -0.5,0.48 -0.99,0.98 -1.47,1.48 -0.54,0.56 -0.71,1.25 -0.6,1.88 0,0.06 0.01,0.12 0.03,0.18 -0.01,0 0,0.01 0,0.02 0,0.01 0.01,0.03 0.01,0.04 0.11,0.42 0.34,0.81 0.66,1.11 0.11,0.1 0.22,0.19 0.34,0.27 0.24,0.16 0.53,0.27 0.83,0.31 0.09,0.01 0.17,0.03 0.26,0.03 0.09,0 0.17,0 0.25,-0.01 0.09,0 0.18,-0.02 0.26,-0.03 0.09,-0.02 0.18,-0.04 0.27,-0.07 1.23,-0.38 2.58,-0.78 4.05,-1.19 0.14,-0.04 0.28,-0.07 0.41,-0.11 0.23,-0.06 0.47,-0.12 0.71,-0.19 0.37,-0.09 0.74,-0.19 1.13,-0.29 0.04,-0.01 0.08,-0.02 0.12,-0.03 h 0.01 c 0.42,-0.1 0.85,-0.2 1.29,-0.3 0.73,-0.17 1.48,-0.33 2.26,-0.5 0.26,-0.05 0.52,-0.11 0.78,-0.16 0.14,-0.03 0.27,-0.06 0.42,-0.08 0.8,-0.15 1.62,-0.31 2.46,-0.45 0.84,-0.15 1.7,-0.29 2.58,-0.42 0.22,-0.04 0.44,-0.07 0.67,-0.1 0.22,-0.04 0.45,-0.06 0.67,-0.09 0.36,-0.05 0.73,-0.1 1.11,-0.15 0.46,-0.06 0.93,-0.12 1.4,-0.17 0.08,0 0.17,-0.01 0.25,-0.03 0.47,-0.06 0.94,-0.1 1.42,-0.15 0.96,-0.1 1.93,-0.18 2.92,-0.25 0.5,-0.04 1,-0.07 1.5,-0.1 0.21,-0.01 0.42,-0.03 0.63,-0.04 0.55,-0.03 1.11,-0.06 1.68,-0.08 0.05,0 0.11,0 0.16,0 0.62,-0.02 1.24,-0.04 1.87,-0.06 0.78,-0.01 1.59,-0.02 2.39,-0.02 0.6,0.01 1.21,0.01 1.82,0.02 0,0 0,0 0.01,0 0.61,0.01 1.23,0.03 1.85,0.05 0.62,0.02 1.25,0.05 1.88,0.08 0,0 0,0 0.01,0 0.63,0.03 1.27,0.07 1.9,0.12 h 0.04 c 0.67,0.05 1.34,0.1 2.01,0.16 v -0.01 l 0.18,0.03 2.24,0.32 0.18,0.03 c 0.01,0 0.01,0 0.01,0 0,0 0.01,0 0.01,0.01 l 0.32,0.05 5.92,0.85 0.86,0.12 0.18,0.03 2.02,0.29 0.08,0.01 v -0.01 c 0,0 0.06,0.01 0.14,0.03 0.18,0.04 0.51,0.11 0.8,0.17 0.07,0.02 0.14,0.03 0.2,0.04 0.05,0.01 0.09,0.02 0.13,0.03 0.23,0.05 0.45,0.1 0.68,0.15 0.2,0.04 0.41,0.08 0.61,0.13 0.32,0.07 0.64,0.15 0.97,0.23 0.32,0.07 0.65,0.15 0.98,0.23 0.05,0.01 0.11,0.03 0.16,0.04 0.05,0.01 0.1,0.02 0.15,0.04 0.03,0 0.05,0.01 0.08,0.02 0.48,0.12 0.95,0.24 1.43,0.37 0.04,0.01 0.08,0.02 0.13,0.03 0.44,0.12 0.87,0.24 1.31,0.36 0.03,0 0.06,0.01 0.08,0.02 0.49,0.14 0.97,0.27 1.46,0.42 0.36,0.1 0.74,0.21 1.11,0.32 0.66,0.2 1.32,0.41 1.99,0.64 0.23,0.07 0.46,0.14 0.68,0.22 0.09,0.03 0.17,0.06 0.26,0.09 0.36,0.12 0.72,0.24 1.08,0.37 0.27,0.09 0.54,0.18 0.8,0.29 0.18,0.06 0.36,0.12 0.55,0.19 1.8,0.65 3.62,1.35 5.44,2.13 0.45,0.19 0.91,0.39 1.37,0.59 0.39,0.17 0.78,0.34 1.18,0.52 0.52,0.23 1.05,0.47 1.58,0.72 0.46,0.21 0.92,0.43 1.38,0.66 0.02,0.01 0.05,0.02 0.07,0.03 1.01,0.49 2.02,1 3.04,1.53 1.29,0.67 2.57,1.36 3.86,2.1 0.32,0.18 0.64,0.36 0.95,0.55 0.67,0.39 1.35,0.79 2.02,1.2 0.41,0.25 0.82,0.5 1.24,0.76 0.47,0.29 0.94,0.59 1.41,0.89 0.36,0.23 0.72,0.46 1.08,0.7 0.35,0.22 0.69,0.44 1.04,0.68 0.24,0.15 0.48,0.31 0.71,0.48 0.07,0.05 0.15,0.1 0.22,0.15 0.4,0.27 0.8,0.54 1.19,0.82 0.19,0.13 0.38,0.26 0.56,0.39 0.18,0.13 0.36,0.26 0.55,0.39 0.2,0.15 0.4,0.29 0.61,0.44 0.22,0.16 0.45,0.33 0.66,0.49 0.29,0.22 0.57,0.43 0.86,0.64 0.69,0.52 1.37,1.05 2.02,1.57 0.33,0.26 0.65,0.52 0.97,0.79 0.07,0.06 0.14,0.12 0.21,0.18 0.25,0.2 0.49,0.41 0.73,0.62 0.31,0.26 0.62,0.53 0.92,0.79 0.3,0.26 0.59,0.53 0.89,0.8 0.29,0.26 0.58,0.53 0.86,0.79 0.25,0.23 0.5,0.47 0.75,0.71 0.31,0.3 0.61,0.6 0.91,0.89 0.21,0.22 0.42,0.43 0.62,0.64 0.57,0.59 1.12,1.19 1.65,1.78 0.24,0.27 0.48,0.54 0.71,0.81 0.52,0.62 1.01,1.25 1.47,1.86 0.06,0.08 0.12,0.16 0.18,0.24 0.57,0.75 1.1,1.5 1.58,2.24 0,0 0,0.01 0,0.01 0.11,0.16 0.21,0.31 0.31,0.47 0.01,0.01 0.02,0.03 0.02,0.04 1.8,2.76 3.11,5.37 4.04,7.77 0.03,0.06 0.06,0.13 0.07,0.19 0.09,0.23 0.18,0.45 0.26,0.68 0.03,0.07 0.05,0.15 0.08,0.22 0.19,0.52 0.36,1.03 0.51,1.53 l 0.04,0.12 c 0.01,0.04 0.02,0.07 0.02,0.1 0.15,0.54 0.28,1.08 0.4,1.63 0.03,0.17 0.06,0.33 0.1,0.5 0.13,0.67 0.25,1.34 0.33,2.02 0.3,2.37 0.32,4.73 0.06,7.11 l -0.01,0.04 c -0.02,0.01 -0.04,0.03 -0.06,0.04 -0.34,0.26 -0.69,0.53 -1.03,0.82 -0.52,0.43 -1.03,0.89 -1.53,1.38 l -0.05,0.04 c -0.31,0.29 -0.61,0.6 -0.9,0.93 l -0.08,0.09 c -0.11,0.12 -0.23,0.25 -0.33,0.38 -0.04,0.05 -0.08,0.09 -0.12,0.13 -0.79,0.9 -1.57,1.9 -2.32,3.01 -0.11,0.16 -0.22,0.32 -0.32,0.48 -0.15,0.21 -0.28,0.43 -0.43,0.67 -0.03,0.05 -0.05,0.1 -0.08,0.14 -0.16,0.26 -0.32,0.52 -0.48,0.8 0,-0.03 0,-0.05 0,-0.09 0,-0.04 0.01,-0.07 0.01,-0.11 0.36,-7.08 -2.78,-19.33 -11.18,-23.16 -10.26,-4.67 -19.64,-12.46 -22.56,-18.18 -0.58,-1.12 -1.44,-2.61 -2.57,-4.22 -0.86,-1.24 -1.87,-2.55 -3.01,-3.81 -4.91,-5.49 -12.21,-10.24 -20.28,-5.37 -12.37,7.47 -36.45,6.39 -50.17,4.03 -13.72,-2.35 -17.55,5.05 -29.58,7.56 -1.22,0.26 -2.32,0.35 -3.29,0.31 -8.52,-0.32 -7.28,-11.06 -0.78,-15.42 4.47,-2.99 8.16,-9.41 10.99,-14.83 1.76,-3.37 3.18,-6.36 4.24,-7.91 12.15,-19.41 33.08,-22.57 45.66,-19.13 12.58,3.43 34.11,-6.4 44.53,-9.02 10.42,-2.62 23.11,-1.03 32.44,12.37 0.17,0.25 0.35,0.5 0.51,0.74 8.77,12.41 7.34,6.19 20.59,10.79 3.88,1.35 6.76,3.22 8.98,5.47 2.25,2.28 3.83,4.96 5.09,7.9 l 0.04,0.02 c 0.13,0.34 0.25,0.67 0.38,1 0.42,1.06 0.81,2.15 1.18,3.26 0.02,0.07 0.04,0.13 0.06,0.19 0.02,0.04 0.03,0.09 0.05,0.13 0.24,0.68 0.46,1.34 0.67,1.99 0,0 0,0.01 0,0.01 v 0.01 c 1,3.08 2.01,5.88 2.71,8.29 v 0.01 c 0.23,0.81 0.42,1.57 0.57,2.28 0.01,0.04 0.02,0.08 0.02,0.11 0.31,1.55 0.41,3.05 0.57,4.24 0.31,2.29 0.04,3.64 0.04,4.62 0,0.01 0,0.01 0,0.02 -0.01,0.58 -0.03,0.94 -0.04,1 z"
   id="path1233"
   style="fill:url(#SVGID_3_)" />
			
				<linearGradient
   id="SVGID_4_"
   gradientUnits="userSpaceOnUse"
   x1="227.6356"
   y1="8.802"
   x2="270.742"
   y2="71.988899"
   gradientTransform="matrix(0.9887,0.15,-0.15,0.9887,-30.2606,135.5794)">
				<stop
   offset="0"
   style="stop-color:#000000;stop-opacity:0"
   id="stop1235" />
				<stop
   offset="1"
   style="stop-color:#000000"
   id="stop1237" />
			</linearGradient>
			<path
   class="st4"
   d="m 233.41,199.52 -24.33,18.46 v 0.01 l -0.03,0.02 v 0.01 l -0.03,0.02 -0.03,0.02 c 0,0 -0.01,0 -0.01,0.01 -0.18,0.1 -2.15,1.32 -4.7,4.51 -0.02,0.03 -0.05,0.07 -0.07,0.1 -0.05,0.06 -0.09,0.12 -0.14,0.18 -0.05,0.06 -0.09,0.12 -0.14,0.18 -0.52,0.68 -1.07,1.45 -1.63,2.31 -0.15,0.21 -0.28,0.43 -0.43,0.67 -0.03,0.05 -0.05,0.1 -0.08,0.14 -0.16,0.26 -0.32,0.52 -0.48,0.8 -0.51,0.87 -1.02,1.82 -1.54,2.85 -0.04,0.09 -0.09,0.17 -0.14,0.25 0.54,-1.14 1.1,-2.2 1.68,-3.18 0,-0.04 0.01,-0.07 0.01,-0.11 0.36,-7.08 -2.78,-19.33 -11.18,-23.16 -10.26,-4.67 -19.64,-12.46 -22.56,-18.18 -0.58,-1.12 -1.44,-2.61 -2.57,-4.22 l 22.06,-0.92 0.27,0.02 0.09,0.01 h 0.05 l 18.74,1.3 z"
   id="path1240"
   style="fill:url(#SVGID_4_)" />
			
				<linearGradient
   id="SVGID_5_"
   gradientUnits="userSpaceOnUse"
   x1="284.51199"
   y1="12.8145"
   x2="83.304398"
   y2="-9.6758003"
   gradientTransform="matrix(0.9887,0.15,-0.15,0.9887,-30.2606,135.5794)">
				<stop
   offset="0"
   style="stop-color:#3059E4"
   id="stop1242" />
				<stop
   offset="0.5"
   style="stop-color:#34D1F9"
   id="stop1244" />
				<stop
   offset="1"
   style="stop-color:#FAEE78"
   id="stop1246" />
			</linearGradient>
			<path
   class="st5"
   d="m 215.49,148.5 c 0,0 -0.01,0 0,0 -0.03,-0.02 -0.04,-0.03 -0.05,-0.03 l -0.01,-0.01 c -10.85,-6.41 -22.58,-10.94 -34.55,-13.63 -0.57,-0.13 -1.14,-0.25 -1.71,-0.37 -0.06,-0.01 -0.12,-0.02 -0.17,-0.04 -0.51,-0.11 -1.03,-0.21 -1.54,-0.31 -1.08,-0.21 -2.17,-0.4 -3.25,-0.59 -1.03,-0.17 -2.07,-0.33 -3.1,-0.48 l -0.13,-0.02 c 0,0 0,0 0,0 -1.36,-0.18 -2.73,-0.35 -4.09,-0.49 0,0 0,0 0,0 -0.42,-0.05 -0.84,-0.09 -1.25,-0.13 -0.04,-0.01 -0.1,-0.01 -0.15,-0.01 -0.02,0 -0.04,-0.01 -0.06,0 0,0 0,0 0,0 v 0 c -0.53,-0.06 -1.06,-0.1 -1.59,-0.14 v 0 h -0.03 c -0.46,-0.03 -0.91,-0.07 -1.36,-0.1 -0.77,-0.05 -1.55,-0.1 -2.33,-0.13 -0.51,-0.03 -1.03,-0.05 -1.54,-0.06 -0.5,-0.02 -1,-0.03 -1.51,-0.04 -0.29,0 -0.58,-0.01 -0.88,-0.01 -0.82,-0.01 -1.63,-0.02 -2.45,-0.01 -0.32,0 -0.65,0.01 -0.97,0.01 -0.38,0 -0.76,0.01 -1.14,0.02 -0.45,0.01 -0.9,0.02 -1.35,0.04 -0.46,0.02 -0.93,0.04 -1.4,0.06 -0.32,0.01 -0.64,0.04 -0.96,0.05 -0.03,0 -0.06,0 -0.09,0 -1,0.05 -2,0.13 -3,0.21 -1.01,0.08 -2.01,0.18 -3.01,0.29 -0.53,0.06 -1.07,0.12 -1.61,0.19 -0.34,0.04 -0.69,0.09 -1.03,0.14 -0.25,0.03 -0.49,0.06 -0.74,0.1 -0.37,0.05 -0.75,0.11 -1.12,0.16 -0.25,0.04 -0.49,0.07 -0.74,0.11 -0.25,0.04 -0.5,0.08 -0.74,0.12 -0.23,0.03 -0.47,0.07 -0.7,0.11 -0.23,0.03 -0.46,0.08 -0.69,0.12 -0.08,0.02 -0.17,0.03 -0.26,0.05 -0.44,0.08 -0.88,0.16 -1.31,0.25 -0.48,0.09 -0.96,0.19 -1.44,0.29 -0.36,0.07 -0.71,0.15 -1.07,0.23 -0.3,0.06 -0.59,0.13 -0.89,0.2 -0.2,0.04 -0.39,0.09 -0.58,0.14 -0.19,0.04 -0.39,0.09 -0.58,0.14 -0.39,0.09 -0.78,0.19 -1.16,0.28 -0.36,0.08 -0.71,0.17 -1.06,0.27 -0.1,0.03 -0.19,0.05 -0.29,0.08 -0.45,0.12 -0.89,0.24 -1.34,0.37 -0.89,0.24 -1.77,0.51 -2.66,0.78 -0.13,0.04 -0.25,0.08 -0.38,0.12 -0.01,0 -0.03,0.01 -0.04,0.01 -0.78,0.25 -1.56,0.5 -2.33,0.76 -0.03,0.01 -0.07,0.02 -0.1,0.03 -0.3,0.1 -0.6,0.2 -0.9,0.31 -0.33,0.11 -0.66,0.23 -0.98,0.35 -0.39,0.14 -0.77,0.29 -1.16,0.43 -0.24,0.08 -0.49,0.18 -0.73,0.28 -0.38,0.14 -0.76,0.3 -1.14,0.45 -0.32,0.12 -0.65,0.26 -0.98,0.4 -0.34,0.14 -0.68,0.28 -1.02,0.43 -1.42,0.61 -2.83,1.26 -4.21,1.94 -0.86,0.43 -1.71,0.87 -2.56,1.31 -0.79,0.42 -1.57,0.85 -2.35,1.3 -0.28,0.15 -0.55,0.31 -0.83,0.48 -0.43,0.25 -0.85,0.5 -1.28,0.76 -0.27,0.17 -0.55,0.34 -0.82,0.51 -0.37,0.23 -0.73,0.46 -1.09,0.7 -0.33,0.21 -0.65,0.42 -0.98,0.65 -0.75,0.5 -1.49,1.01 -2.22,1.53 -0.44,0.31 -0.87,0.62 -1.29,0.94 -0.38,0.29 -0.76,0.57 -1.13,0.86 -0.42,0.32 -0.83,0.65 -1.24,0.98 -2.54,2.05 -4.95,4.25 -7.21,6.59 -0.98,1.02 -0.74,2.43 0.1,3.23 0.11,0.1 0.22,0.19 0.34,0.27 0.25,0.16 0.53,0.27 0.84,0.32 0.08,0.01 0.16,0.02 0.24,0.03 0,0 0,0 0,0 0.09,0 0.17,0 0.25,-0.01 0.16,-0.02 0.32,-0.05 0.49,-0.1 1.84,-0.58 3.96,-1.19 6.34,-1.77 0.04,-0.01 0.08,-0.02 0.12,-0.03 v 0 0 c 0.42,-0.1 0.85,-0.21 1.29,-0.3 0.73,-0.17 1.48,-0.33 2.26,-0.5 0.26,-0.05 0.52,-0.11 0.78,-0.16 0.14,-0.03 0.27,-0.06 0.42,-0.08 0.08,-0.02 0.16,-0.03 0.24,-0.05 0.4,-0.08 0.81,-0.15 1.22,-0.23 0.58,-0.11 1.16,-0.21 1.76,-0.31 0.56,-0.09 1.13,-0.19 1.71,-0.27 0.03,-0.01 0.07,-0.01 0.1,-0.02 0.22,-0.04 0.44,-0.07 0.67,-0.1 0.22,-0.04 0.45,-0.06 0.67,-0.09 0.37,-0.05 0.74,-0.11 1.11,-0.15 0.46,-0.06 0.93,-0.12 1.4,-0.17 0.08,0 0.17,-0.01 0.25,-0.03 0.03,0 0.06,-0.01 0.09,-0.01 0.44,-0.05 0.88,-0.1 1.32,-0.14 0.11,-0.01 0.23,-0.02 0.34,-0.03 0.71,-0.07 1.42,-0.13 2.14,-0.19 0.15,-0.01 0.29,-0.03 0.43,-0.04 0.47,-0.04 0.95,-0.07 1.43,-0.1 0.02,0 0.04,0 0.06,0 0.21,-0.01 0.42,-0.03 0.63,-0.04 0.55,-0.04 1.11,-0.06 1.68,-0.08 0.05,0 0.11,0 0.16,0 0.62,-0.03 1.24,-0.05 1.87,-0.06 0.78,-0.01 1.59,-0.02 2.39,-0.02 0.6,0.01 1.21,0.01 1.82,0.02 0,0 0,0 0,0 0,0 0,0 0,0 0.61,0.01 1.23,0.03 1.85,0.05 0.62,0.02 1.25,0.05 1.88,0.08 0,0 0,0 0,0 0,0 0,0 0,0 0.63,0.03 1.26,0.07 1.9,0.12 h 0.04 c 0.67,0.05 1.34,0.1 2.01,0.16 v 0 -0.01 l 0.08,0.01 0.1,0.02 c 3.78,0.34 7.7,0.88 11.73,1.69 v 0 l 0.08,0.01 v 0 -0.01 c 0,0 0.06,0.01 0.14,0.03 0.18,0.04 0.51,0.11 0.8,0.17 0.12,0.02 0.23,0.05 0.33,0.07 0.23,0.05 0.45,0.1 0.68,0.15 0.2,0.04 0.41,0.08 0.61,0.13 0.32,0.07 0.64,0.15 0.97,0.23 0.33,0.07 0.65,0.16 0.98,0.23 0.13,0.03 0.26,0.06 0.39,0.1 0.48,0.12 0.95,0.24 1.43,0.37 0.05,0.01 0.08,0.02 0.13,0.03 0.44,0.12 0.87,0.24 1.31,0.36 0.03,0 0.06,0.01 0.08,0.02 0.49,0.14 0.97,0.27 1.46,0.42 0.36,0.1 0.74,0.21 1.11,0.32 0.89,0.27 1.77,0.56 2.67,0.85 0.45,0.15 0.9,0.3 1.35,0.46 0.45,0.15 0.9,0.31 1.35,0.48 1.8,0.65 3.62,1.35 5.44,2.13 0.45,0.19 0.91,0.39 1.37,0.59 0.39,0.17 0.78,0.34 1.18,0.52 0.52,0.23 1.05,0.47 1.58,0.72 0.46,0.21 0.92,0.43 1.38,0.66 1.03,0.5 2.07,1.02 3.11,1.56 1.29,0.67 2.57,1.36 3.86,2.1 0.32,0.18 0.64,0.36 0.95,0.55 0.67,0.39 1.35,0.79 2.02,1.2 0.41,0.25 0.82,0.5 1.24,0.76 0.47,0.29 0.94,0.59 1.41,0.89 0.36,0.23 0.72,0.46 1.08,0.7 0.35,0.22 0.69,0.44 1.04,0.68 0.24,0.15 0.48,0.31 0.71,0.48 0.07,0.05 0.15,0.1 0.22,0.15 0.4,0.27 0.8,0.54 1.19,0.82 0.19,0.13 0.38,0.26 0.56,0.39 0.18,0.13 0.36,0.26 0.55,0.39 0.2,0.15 0.4,0.29 0.61,0.44 0.52,0.38 1.02,0.75 1.52,1.13 0.69,0.52 1.37,1.05 2.02,1.57 0.33,0.26 0.65,0.52 0.97,0.79 0.07,0.06 0.14,0.12 0.21,0.18 0.25,0.2 0.49,0.41 0.73,0.62 0.31,0.26 0.62,0.53 0.92,0.79 0.3,0.26 0.59,0.53 0.89,0.8 0.29,0.26 0.58,0.53 0.86,0.79 0.25,0.23 0.5,0.47 0.75,0.71 0.31,0.3 0.61,0.6 0.91,0.89 0.21,0.22 0.42,0.43 0.62,0.64 0.57,0.59 1.12,1.19 1.65,1.78 0.24,0.27 0.48,0.54 0.71,0.81 0.52,0.62 1.01,1.25 1.47,1.86 0.06,0.08 0.12,0.16 0.18,0.24 0.01,0.02 0.02,0.03 0.04,0.05 2.86,3.71 4.93,7.47 6.23,11.27 0.01,0.02 0.02,0.05 0.03,0.07 0.03,0.07 0.05,0.15 0.08,0.22 0.19,0.52 0.36,1.03 0.51,1.53 l 0.04,0.12 c 1.03,3.76 1.32,7.56 0.91,11.36 7.81,-5.75 15.83,-4.44 17.94,-6.87 0,0 0.01,0 0.01,-0.01 2.67,-3.08 11.04,-10.91 10.23,-30.09 0,0.72 -0.03,1.08 -0.03,1.08 -4.43,-20.46 -20.64,-32.94 -21.67,-33.72 z"
   id="path1249"
   style="fill:url(#SVGID_5_)" />
			
				<linearGradient
   id="SVGID_6_"
   gradientUnits="userSpaceOnUse"
   x1="219.09979"
   y1="-8.1571999"
   x2="298.25031"
   y2="51.2593"
   gradientTransform="matrix(0.9887,0.15,-0.15,0.9887,-30.2606,135.5794)">
				<stop
   offset="0"
   style="stop-color:#51C5F6;stop-opacity:0"
   id="stop1251" />
				<stop
   offset="0.1234"
   style="stop-color:#50C2F2;stop-opacity:0.1234"
   id="stop1253" />
				<stop
   offset="0.2508"
   style="stop-color:#4CB8E5;stop-opacity:0.2508"
   id="stop1255" />
				<stop
   offset="0.3799"
   style="stop-color:#45A7D1;stop-opacity:0.3799"
   id="stop1257" />
				<stop
   offset="0.5103"
   style="stop-color:#3B90B4;stop-opacity:0.5103"
   id="stop1259" />
				<stop
   offset="0.6417"
   style="stop-color:#2F728F;stop-opacity:0.6417"
   id="stop1261" />
				<stop
   offset="0.774"
   style="stop-color:#204E61;stop-opacity:0.774"
   id="stop1263" />
				<stop
   offset="0.9044"
   style="stop-color:#0E232C;stop-opacity:0.9044"
   id="stop1265" />
				<stop
   offset="1"
   style="stop-color:#000000"
   id="stop1267" />
			</linearGradient>
			<path
   class="st6"
   d="m 236.76,191.32 -0.01,0.05 c -0.05,0.34 -0.11,0.67 -0.16,1 -0.01,0.06 -0.02,0.11 -0.03,0.16 -0.06,0.33 -0.12,0.65 -0.19,0.97 -0.14,0.7 -0.29,1.37 -0.47,2.02 -0.08,0.32 -0.17,0.64 -0.26,0.96 -0.09,0.31 -0.18,0.62 -0.27,0.92 -0.1,0.3 -0.19,0.6 -0.3,0.89 -0.1,0.29 -0.2,0.57 -0.3,0.85 -2.49,6.71 -6.15,10.28 -7.76,12.13 -0.01,0 -0.01,0.01 -0.01,0.01 -2.11,2.43 -10.12,1.11 -17.94,6.87 -0.03,0.02 -0.06,0.04 -0.09,0.07 -1.5,1.08 -2.8,2.3 -3.91,3.52 -0.04,0.05 -0.08,0.09 -0.12,0.13 -0.31,0.33 -0.6,0.67 -0.87,1 -0.05,0.06 -0.09,0.12 -0.14,0.18 -0.07,0.09 -0.14,0.17 -0.21,0.26 -0.04,0.05 -0.09,0.11 -0.13,0.16 -0.98,1.24 -1.74,2.4 -2.28,3.3 0.36,-7.08 -2.78,-19.33 -11.18,-23.16 -10.26,-4.67 -19.64,-12.46 -22.56,-18.18 -0.58,-1.12 -1.44,-2.61 -2.57,-4.22 -0.86,-1.24 -1.87,-2.55 -3.01,-3.81 l 6.28,-8.55 0.04,-0.06 0.01,-0.02 22.85,-31.11 0.06,-0.08 v -0.01 l 5.02,-6.83 c 8.77,12.41 7.34,6.19 20.59,10.79 3.88,1.35 6.76,3.22 8.98,5.47 2.52,3.41 4.72,7.11 6.25,11.02 0.18,0.46 0.35,0.91 0.52,1.35 0.02,0.04 0.03,0.09 0.05,0.13 0.27,0.71 0.52,1.41 0.77,2.08 0.01,0 0,0.01 0,0.01 1.14,3.17 1.98,5.89 2.6,8.21 v 0.01 c 0.22,0.81 0.4,1.57 0.57,2.28 0.01,0.04 0.02,0.08 0.02,0.11 1.49,6.62 0.87,9.28 0.66,9.92 0,0.01 0,0.01 0,0.01 0.01,0.31 0.01,0.63 0.02,0.94 0,0.31 0,0.62 0,0.92 -0.01,0.68 -0.01,1.34 -0.04,1.98 -0.01,0.33 -0.03,0.65 -0.05,0.96 -0.04,0.65 -0.09,1.29 -0.15,1.91 -0.02,0.23 -0.04,0.45 -0.07,0.67 -0.03,0.24 -0.06,0.49 -0.09,0.72 -0.02,0.35 -0.07,0.72 -0.12,1.09 z"
   id="path1270"
   style="fill:url(#SVGID_6_)" />
			
				<linearGradient
   id="SVGID_7_"
   gradientUnits="userSpaceOnUse"
   x1="213.33479"
   y1="67.824699"
   x2="235.4343"
   y2="102.7047"
   gradientTransform="matrix(0.9887,0.15,-0.15,0.9887,-30.2606,135.5794)">
				<stop
   offset="0"
   style="stop-color:#51C5F6;stop-opacity:0"
   id="stop1272" />
				<stop
   offset="0.1234"
   style="stop-color:#50C2F2;stop-opacity:0.1234"
   id="stop1274" />
				<stop
   offset="0.2508"
   style="stop-color:#4CB8E5;stop-opacity:0.2508"
   id="stop1276" />
				<stop
   offset="0.3799"
   style="stop-color:#45A7D1;stop-opacity:0.3799"
   id="stop1278" />
				<stop
   offset="0.5103"
   style="stop-color:#3B90B4;stop-opacity:0.5103"
   id="stop1280" />
				<stop
   offset="0.6417"
   style="stop-color:#2F728F;stop-opacity:0.6417"
   id="stop1282" />
				<stop
   offset="0.774"
   style="stop-color:#204E61;stop-opacity:0.774"
   id="stop1284" />
				<stop
   offset="0.9044"
   style="stop-color:#0E232C;stop-opacity:0.9044"
   id="stop1286" />
				<stop
   offset="1"
   style="stop-color:#000000"
   id="stop1288" />
			</linearGradient>
			<path
   class="st7"
   d="m 237.17,228.88 c -0.8,0.83 -1.63,1.66 -2.5,2.5 -0.26,0.25 -0.53,0.51 -0.81,0.77 -0.27,0.25 -0.55,0.51 -0.83,0.77 -5.59,5.14 -12.72,10.26 -21.31,15.84 -10.67,6.93 -21.64,13.08 -31.97,18.05 -30.55,14.68 -54.75,22.28 -73.36,29.1 -3.12,1.15 -7.37,1.83 -10.12,2.46 2.86,-4.71 23.29,-36.98 45.73,-41.23 24.25,-4.58 47.35,-2.42 56.56,-24.72 0.35,-0.83 0.7,-1.63 1.06,-2.38 0.54,-1.14 1.1,-2.2 1.68,-3.18 0.93,-1.58 1.9,-2.97 2.9,-4.19 0.02,-0.03 0.05,-0.07 0.07,-0.1 1.53,-1.86 3.11,-3.33 4.7,-4.51 0.01,0 0.01,-0.01 0.01,-0.01 l 0.03,-0.02 c 0.01,0 0.02,-0.01 0.03,-0.02 l 0.03,-0.02 c 7.8,-5.73 15.8,-4.42 17.9,-6.84 0,0 0.01,0 0.01,-0.01 2.64,-3.05 10.87,-10.75 10.24,-29.51 0,-0.02 0,-0.05 0,-0.08 0,-0.17 -0.01,-0.33 -0.02,-0.5 0,-0.01 0,-0.01 0,-0.02 -0.06,-1.55 -0.19,-3.18 -0.39,-4.89 -0.14,-1.22 -0.31,-2.48 -0.52,-3.77 l -0.19,-0.43 -3.28,-7.24 0.44,-2.97 0.14,-0.17 c 0,0 0,0.01 0.02,0.01 0.42,0.31 8.87,6.53 14.4,16.83 0.02,0.03 0.03,0.06 0.05,0.09 6.5,12.16 8.89,29.96 -10.7,50.39 z"
   id="path1291"
   style="fill:url(#SVGID_7_)" />
			<g
   id="g1302">
				<linearGradient
   id="SVGID_8_"
   gradientUnits="userSpaceOnUse"
   x1="254.254"
   y1="261.81451"
   x2="132.2881"
   y2="333.23599">
					<stop
   offset="0"
   style="stop-color:#3059E4"
   id="stop1293" />
					<stop
   offset="0.5"
   style="stop-color:#34D1F9"
   id="stop1295" />
					<stop
   offset="1"
   style="stop-color:#FAEE78"
   id="stop1297" />
				</linearGradient>
				<path
   class="st8"
   d="m 196.4,313.32 c -5.84,2.85 -16.12,8.51 -30.44,10.86 h -0.35 c -0.61,-0.09 -1.05,-0.7 -0.93,-1.37 0.44,-2.09 0.29,-4.36 -0.46,-6.51 -1.19,-3.31 -3.63,-5.78 -6.62,-7.12 -0.73,-0.32 -0.87,-1.31 -0.26,-1.83 12.34,-11.12 28.61,-27.47 40.46,-26.52 0.58,0.06 1.13,0.12 1.63,0.17 10.72,1.63 4.7,9.85 6.62,11.21 6.09,4.33 -3.11,17.92 -9.65,21.11 z"
   id="path1300"
   style="fill:url(#SVGID_8_)" />
			</g>
		</g>
	</g>
</g><path
     style="fill:#ffffff;fill-opacity:1;fill-rule:evenodd;stroke-width:0.0821173"
     d="m 127.92596,324.5641 c -2.28431,-0.27556 -4.26971,-1.65284 -5.25023,-3.64211 -0.7279,-1.47677 -0.90374,-2.77594 -0.6103,-4.50912 0.12492,-0.73789 0.12335,-2.02346 -0.004,-2.75379 -0.28214,-1.62613 -1.03597,-3.08411 -2.19513,-4.24556 -0.70169,-0.70308 -1.25588,-1.08508 -2.4583,-1.69449 -1.09264,-0.55378 -1.82764,-1.12097 -2.43579,-1.87969 -1.92969,-2.40746 -1.97943,-5.79411 -0.12132,-8.26001 0.39102,-0.51892 0.73329,-0.84093 6.27209,-5.9007 7.49208,-6.84412 11.57857,-10.37974 15.79677,-13.66729 9.54661,-7.44039 17.20837,-11.20627 23.96974,-11.78153 2.73549,-0.23273 6.23367,0.19583 8.99944,1.10254 2.08586,0.6838 3.72424,1.64572 5.05037,2.96511 1.68586,1.6773 2.65176,3.74178 3.00767,6.42854 0.12303,0.92872 0.13504,2.80297 0.0257,4.01633 l -0.0766,0.85052 0.22755,0.28013 c 0.6297,0.77521 1.23241,1.91169 1.60092,3.01873 0.94953,2.85235 0.80957,5.97387 -0.42952,9.5807 -2.13841,6.22468 -7.37173,12.96251 -12.89205,16.59833 -1.17984,0.77709 -8.25842,4.26869 -12.1025,5.96972 -7.41433,3.2809 -14.80233,5.63008 -22.12945,7.03653 -2.45691,0.47161 -3.43957,0.58435 -4.24571,0.48711 z m 2.72741,-5.70974 c 7.07239,-1.35947 13.49268,-3.33516 20.22244,-6.223 4.25939,-1.82775 11.31498,-5.26536 12.73927,-6.20677 4.53397,-2.99687 9.20962,-9.23873 10.75232,-14.35409 0.39641,-1.31445 0.47609,-1.85925 0.47717,-3.26272 9.5e-4,-1.51828 -0.0595,-1.82985 -0.5562,-2.86187 -0.27351,-0.56817 -0.39776,-0.74247 -0.85203,-1.19526 -0.29252,-0.29154 -0.63867,-0.62381 -0.76923,-0.73839 -0.1397,-0.12258 -0.26526,-0.3087 -0.30513,-0.45226 -0.10934,-0.39385 -0.0778,-1.19939 0.0943,-2.40831 0.37668,-2.64668 0.33855,-3.91119 -0.15792,-5.23815 -0.73163,-1.95543 -2.74155,-3.28753 -5.93676,-3.93466 -0.89454,-0.18118 -2.91256,-0.38741 -3.80085,-0.38843 -6.07893,-0.007 -13.65561,3.7781 -23.7343,11.85691 -3.96428,3.17768 -6.80693,5.66789 -14.89345,13.04689 -2.02614,1.84887 -3.93574,3.58979 -4.24356,3.86874 -0.7603,0.68893 -0.9244,1.13851 -0.64028,1.75413 0.16852,0.36513 0.32731,0.48962 1.18159,0.92644 2.1742,1.11168 3.85397,2.59871 5.18357,4.58879 1.05318,1.57632 1.73026,3.31181 2.08401,5.34176 0.15714,0.90166 0.15896,3.17897 0.004,4.01914 -0.061,0.3287 -0.11079,0.74416 -0.11079,0.92324 0,0.47849 0.2487,0.90154 0.6784,1.15401 0.21465,0.12612 1.25755,0.0388 2.58432,-0.21614 z"
     id="path42133" /><path
     style="fill:#ffffff;fill-opacity:1;fill-rule:evenodd;stroke-width:0.0202778"
     d="m 47.318154,327.21404 c -1.213899,-0.11202 -2.272551,-0.44267 -3.27062,-1.02153 -0.221904,-0.12869 -0.590948,-0.36484 -0.571182,-0.36548 0.0061,-2.1e-4 0.09587,-0.0113 0.199428,-0.0247 1.603656,-0.20623 2.98337,-1.18225 3.704286,-2.62038 0.314333,-0.62706 0.478124,-1.27732 0.521375,-2.06989 0.01135,-0.20804 -0.01223,-0.59756 -0.04876,-0.80536 -0.08109,-0.46125 -0.326219,-1.22404 -0.447427,-1.39236 -0.02053,-0.0284 -0.08457,-0.14156 -0.142304,-0.25125 -0.05774,-0.10968 -0.140692,-0.24609 -0.184343,-0.30312 -0.04365,-0.057 -0.127458,-0.1755 -0.186237,-0.26325 -0.166977,-0.24927 -0.609574,-0.68006 -1.002118,-0.97536 -0.734113,-0.55227 -1.589885,-0.86281 -2.51712,-0.91342 -0.874065,-0.0478 -1.698365,0.13144 -2.538093,0.5516 -0.130365,0.0653 -0.239357,0.11626 -0.242199,0.11342 -0.01205,-0.0121 0.196281,-0.50449 0.319203,-0.75457 0.930557,-1.89314 2.579651,-3.31817 4.603285,-3.97784 1.703899,-0.55543 3.5745,-0.50175 5.22778,0.15001 1.781385,0.70227 3.231359,2.03956 4.081197,3.76402 0.190613,0.38678 0.293363,0.63593 0.416496,1.00991 0.737248,2.2392 0.408993,4.73102 -0.881925,6.69482 -0.997032,1.51671 -2.516969,2.64491 -4.256703,3.1596 -0.445435,0.13178 -0.846603,0.2131 -1.348134,0.27328 -0.249749,0.03 -1.192222,0.0442 -1.435882,0.0218 z"
     id="path42363" /></g></svg>
