<?xml version="1.0" encoding="UTF-8" standalone="no"?>
<!-- Created with Inkscape (http://www.inkscape.org/) -->

<svg
   version="1.1"
   id="svg2"
   xml:space="preserve"
   width="1391.8234"
   height="421.3504"
   viewBox="0 0 1391.8235 421.35042"
   sodipodi:docname="my_final.ai.svg"
   inkscape:version="1.1.2 (0a00cf5339, 2022-02-04)"
   inkscape:export-filename="/home/tony/Documents/my_final.ai.png"
   inkscape:export-xdpi="96"
   inkscape:export-ydpi="96"
   xmlns:inkscape="http://www.inkscape.org/namespaces/inkscape"
   xmlns:sodipodi="http://sodipodi.sourceforge.net/DTD/sodipodi-0.dtd"
   xmlns="http://www.w3.org/2000/svg"
   xmlns:svg="http://www.w3.org/2000/svg"><defs
     id="defs6"><clipPath
       clipPathUnits="userSpaceOnUse"
       id="clipPath16"><path
         d="M 0,1000 H 1000 V 0 H 0 Z"
         id="path14" /></clipPath><linearGradient
       x1="0"
       y1="0"
       x2="1"
       y2="0"
       gradientUnits="userSpaceOnUse"
       gradientTransform="matrix(309.12195,225.69945,225.69945,-309.12195,373.672,515.59558)"
       spreadMethod="pad"
       id="linearGradient40"><stop
         style="stop-opacity:1;stop-color:#3059e4"
         offset="0"
         id="stop34" /><stop
         style="stop-opacity:1;stop-color:#34d1f9"
         offset="0.5"
         id="stop36" /><stop
         style="stop-opacity:1;stop-color:#faee78"
         offset="1"
         id="stop38" /></linearGradient><linearGradient
       x1="0"
       y1="0"
       x2="1"
       y2="0"
       gradientUnits="userSpaceOnUse"
       gradientTransform="matrix(-259.44586,-170.90515,-170.90515,259.44586,644.03894,681.17395)"
       spreadMethod="pad"
       id="linearGradient62"><stop
         style="stop-opacity:1;stop-color:#3059e4"
         offset="0"
         id="stop56" /><stop
         style="stop-opacity:1;stop-color:#34d1f9"
         offset="0.5"
         id="stop58" /><stop
         style="stop-opacity:1;stop-color:#faee78"
         offset="1"
         id="stop60" /></linearGradient><linearGradient
       x1="0"
       y1="0"
       x2="1"
       y2="0"
       gradientUnits="userSpaceOnUse"
       gradientTransform="matrix(252.71634,-38.347984,-38.347984,-252.71634,357.65085,719.7049)"
       spreadMethod="pad"
       id="linearGradient82"><stop
         style="stop-opacity:1;stop-color:#18c9ec"
         offset="0"
         id="stop78" /><stop
         style="stop-opacity:1;stop-color:#003bff"
         offset="1"
         id="stop80" /></linearGradient><clipPath
       clipPathUnits="userSpaceOnUse"
       id="clipPath92"><path
         d="m 509.053,678.793 c 1.57,-2.246 2.78,-4.325 3.587,-5.893 v 0 c 4.079,-7.989 17.163,-18.855 31.478,-25.372 v 0 c 11.731,-5.344 16.107,-22.436 15.603,-32.316 v 0 c 0,-0.056 -0.007,-0.103 -0.008,-0.159 v 0 c -0.803,-1.372 -1.589,-2.85 -2.344,-4.438 v 0 c 0.073,0.109 0.14,0.228 0.197,0.347 v 0 c 0.717,1.433 1.43,2.754 2.145,3.97 v 0 c 0.219,0.384 0.444,0.753 0.666,1.112 v 0 c 0.042,0.065 0.076,0.133 0.119,0.199 v 0 c 0.201,0.323 0.393,0.63 0.599,0.929 v 0 c 0.776,1.206 1.542,2.279 2.271,3.228 v 0 c 0.068,0.078 0.13,0.165 0.2,0.251 v 0 c 0.061,0.087 0.12,0.166 0.189,0.252 v 0 c 0.032,0.043 0.072,0.093 0.102,0.137 v 0 c 3.552,4.455 6.297,6.15 6.552,6.296 v 0 c 0.009,0.007 0.017,0.013 0.017,0.013 v 0 l 0.037,0.027 0.043,0.026 0.003,0.008 0.043,0.025 0.002,0.008 33.945,25.754 -37.954,25.03 -26.148,1.815 -0.065,0.002 -0.127,0.011 -0.373,0.025 z"
         id="path90" /></clipPath><linearGradient
       x1="0"
       y1="0"
       x2="1"
       y2="0"
       gradientUnits="userSpaceOnUse"
       gradientTransform="matrix(46.23748,-96.188133,-96.188133,-46.23748,548.78186,682.62488)"
       spreadMethod="pad"
       id="linearGradient108"><stop
         style="stop-opacity:0;stop-color:#ffffff"
         offset="0"
         id="stop102" /><stop
         style="stop-opacity:0;stop-color:#ffffff"
         offset="0.48772854"
         id="stop104" /><stop
         style="stop-opacity:1;stop-color:#ffffff"
         offset="1"
         id="stop106" /></linearGradient><mask
       maskUnits="userSpaceOnUse"
       x="0"
       y="0"
       width="1"
       height="1"
       id="mask110"><g
         id="g120"><g
           id="g118"><g
             id="g116"><g
               id="g114"><path
                 d="M -32768,32767 H 32767 V -32768 H -32768 Z"
                 style="fill:url(#linearGradient108);stroke:none"
                 id="path112" /></g></g></g></g></mask><linearGradient
       x1="0"
       y1="0"
       x2="1"
       y2="0"
       gradientUnits="userSpaceOnUse"
       gradientTransform="matrix(46.23748,-96.188133,-96.188133,-46.23748,548.78186,682.62488)"
       spreadMethod="pad"
       id="linearGradient132"><stop
         style="stop-opacity:1;stop-color:#000000"
         offset="0"
         id="stop126" /><stop
         style="stop-opacity:1;stop-color:#000000"
         offset="0.48772854"
         id="stop128" /><stop
         style="stop-opacity:1;stop-color:#000000"
         offset="1"
         id="stop130" /></linearGradient><linearGradient
       x1="0"
       y1="0"
       x2="1"
       y2="0"
       gradientUnits="userSpaceOnUse"
       gradientTransform="matrix(-272.85312,73.142754,73.142754,272.85312,626.40143,665.18408)"
       spreadMethod="pad"
       id="linearGradient154"><stop
         style="stop-opacity:1;stop-color:#3059e4"
         offset="0"
         id="stop148" /><stop
         style="stop-opacity:1;stop-color:#34d1f9"
         offset="0.5"
         id="stop150" /><stop
         style="stop-opacity:1;stop-color:#faee78"
         offset="1"
         id="stop152" /></linearGradient><clipPath
       clipPathUnits="userSpaceOnUse"
       id="clipPath164"><path
         d="m 545.672,739.678 -10e-4,-0.009 -0.09,-0.114 -31.888,-43.409 -0.011,-0.022 -0.06,-0.079 -8.764,-11.935 c 1.586,-1.766 2.996,-3.594 4.195,-5.317 v 0 c 1.57,-2.246 2.78,-4.325 3.587,-5.893 v 0 c 4.079,-7.989 17.163,-18.855 31.478,-25.372 v 0 c 11.731,-5.344 16.107,-22.436 15.603,-32.316 v 0 c 0.752,1.258 1.818,2.88 3.18,4.608 v 0 c 0.059,0.071 0.119,0.15 0.178,0.222 v 0 c 0.091,0.123 0.189,0.236 0.287,0.358 v 0 c 0.068,0.078 0.13,0.165 0.2,0.251 v 0 c 0.381,0.455 0.782,0.925 1.215,1.389 v 0 c 0.049,0.065 0.106,0.121 0.163,0.184 v 0 c 1.551,1.7 3.366,3.399 5.457,4.905 v 0 c 0.038,0.034 0.082,0.059 0.127,0.094 v 0 c 10.902,8.028 22.09,6.194 25.027,9.577 v 0 l 0.018,0.015 c 2.239,2.583 7.354,7.555 10.823,16.921 v 0 c 0.138,0.388 0.287,0.783 0.42,1.189 v 0 c 0.142,0.404 0.277,0.817 0.413,1.238 v 0 c 0.129,0.421 0.258,0.851 0.379,1.282 v 0 c 0.131,0.439 0.247,0.886 0.364,1.335 v 0 c 0.241,0.903 0.456,1.842 0.652,2.815 v 0 c 0.091,0.444 0.176,0.897 0.262,1.358 v 0 c 0.012,0.078 0.03,0.147 0.042,0.226 v 0 c 0.077,0.454 0.157,0.924 0.228,1.394 v 0 l 0.011,0.072 c 0.077,0.51 0.148,1.029 0.212,1.558 v 0 c 0.042,0.33 0.086,0.668 0.121,1.008 v 0 c 0.031,0.309 0.069,0.616 0.093,0.934 v 0 c 0.084,0.862 0.154,1.751 0.203,2.658 v 0 c 0.026,0.439 0.046,0.885 0.067,1.339 v 0 c 0.04,0.902 0.052,1.823 0.059,2.77 v 0 c -10e-4,0.417 10e-4,0.85 -0.006,1.285 v 0 c -0.007,0.427 -0.013,0.869 -0.027,1.305 v 0 c 0,0 10e-4,0.008 0.002,0.016 v 0 c 0.297,0.894 1.166,4.608 -0.918,13.845 v 0 c -0.008,0.049 -0.023,0.108 -0.031,0.157 v 0 c -0.234,0.999 -0.491,2.058 -0.794,3.188 v 0 l 0.002,0.007 c -0.866,3.239 -2.041,7.031 -3.634,11.456 v 0 c 0,0 0.001,0.008 -0.006,0.009 v 0 c -0.34,0.935 -0.691,1.903 -1.07,2.9 v 0 c -0.023,0.06 -0.046,0.12 -0.069,0.179 v 0 c -0.235,0.621 -0.477,1.245 -0.726,1.885 v 0 c -2.134,5.462 -5.197,10.624 -8.714,15.381 v 0 c -3.096,3.144 -7.116,5.754 -12.532,7.635 v 0 c -18.488,6.418 -16.49,-2.267 -28.724,15.053 v 0 z"
         id="path162" /></clipPath><linearGradient
       x1="0"
       y1="0"
       x2="1"
       y2="0"
       gradientUnits="userSpaceOnUse"
       gradientTransform="matrix(96.748764,-98.531883,-98.531883,-96.748764,540.55682,707.80652)"
       spreadMethod="pad"
       id="linearGradient180"><stop
         style="stop-opacity:0;stop-color:#ffffff"
         offset="0"
         id="stop174" /><stop
         style="stop-opacity:0;stop-color:#ffffff"
         offset="0.48772854"
         id="stop176" /><stop
         style="stop-opacity:1;stop-color:#ffffff"
         offset="1"
         id="stop178" /></linearGradient><mask
       maskUnits="userSpaceOnUse"
       x="0"
       y="0"
       width="1"
       height="1"
       id="mask182"><g
         id="g192"><g
           id="g190"><g
             id="g188"><g
               id="g186"><path
                 d="M -32768,32767 H 32767 V -32768 H -32768 Z"
                 style="fill:url(#linearGradient180);stroke:none"
                 id="path184" /></g></g></g></g></mask><linearGradient
       x1="0"
       y1="0"
       x2="1"
       y2="0"
       gradientUnits="userSpaceOnUse"
       gradientTransform="matrix(96.748764,-98.531883,-98.531883,-96.748764,540.55682,707.80652)"
       spreadMethod="pad"
       id="linearGradient204"><stop
         style="stop-opacity:1;stop-color:#51c5f6"
         offset="0"
         id="stop198" /><stop
         style="stop-opacity:1;stop-color:#51c5f6"
         offset="0.48772854"
         id="stop200" /><stop
         style="stop-opacity:1;stop-color:#000000"
         offset="1"
         id="stop202" /></linearGradient><clipPath
       clipPathUnits="userSpaceOnUse"
       id="clipPath214"><path
         d="m 604.318,705.942 -0.612,-4.139 4.577,-10.104 0.27,-0.603 c 0.294,-1.812 0.535,-3.567 0.726,-5.266 v 0 c 0.273,-2.385 0.449,-4.661 0.539,-6.826 v 0 c 0.006,-0.009 0.005,-0.017 0.003,-0.024 v 0 c 0.013,-0.235 0.019,-0.461 0.023,-0.695 v 0 c -0.005,-0.039 -0.003,-0.079 0,-0.113 v 0 c 0.877,-26.179 -10.607,-36.93 -14.294,-41.18 v 0 c -0.009,-0.007 -0.019,-0.013 -0.019,-0.013 v 0 c -2.936,-3.376 -14.093,-1.555 -24.982,-9.546 v 0 l -0.045,-0.033 c -0.017,-0.014 -0.035,-0.019 -0.044,-0.025 v 0 l -0.036,-0.027 c 0,0 -0.009,-0.007 -0.018,-0.014 v 0 c -2.217,-1.647 -4.424,-3.696 -6.552,-6.296 v 0 c -0.031,-0.043 -0.071,-0.094 -0.101,-0.137 v 0 c -1.4,-1.706 -2.745,-3.646 -4.043,-5.85 v 0 c -0.803,-1.372 -1.589,-2.85 -2.344,-4.438 v 0 c -0.505,-1.056 -0.994,-2.162 -1.476,-3.324 v 0 c -12.847,-31.115 -45.079,-28.112 -78.92,-34.498 v 0 c -31.312,-5.92 -59.817,-50.949 -63.81,-57.522 v 0 c 3.835,0.879 9.763,1.831 14.123,3.43 v 0 c 25.958,9.522 59.731,20.126 102.353,40.608 v 0 c 14.414,6.926 29.719,15.511 44.601,25.18 v 0 c 11.991,7.789 21.937,14.93 29.739,22.104 v 0 c 0.386,0.367 0.769,0.727 1.151,1.078 v 0 c 0.384,0.36 0.759,0.72 1.126,1.074 v 0 c 1.215,1.173 2.379,2.337 3.493,3.493 v 0 c 27.33,28.507 24.002,53.349 14.948,70.308 v 0 c -0.025,0.044 -0.043,0.086 -0.068,0.13 v 0 c -7.717,14.38 -19.513,23.059 -20.099,23.485 v 0 c -0.013,0.01 -0.02,0.019 -0.02,0.019 v 0 z"
         id="path212" /></clipPath><linearGradient
       x1="0"
       y1="0"
       x2="1"
       y2="0"
       gradientUnits="userSpaceOnUse"
       gradientTransform="matrix(23.184473,-52.742088,-52.742088,-23.184473,516.69916,604.19806)"
       spreadMethod="pad"
       id="linearGradient230"><stop
         style="stop-opacity:0;stop-color:#ffffff"
         offset="0"
         id="stop224" /><stop
         style="stop-opacity:0;stop-color:#ffffff"
         offset="0.48772854"
         id="stop226" /><stop
         style="stop-opacity:1;stop-color:#ffffff"
         offset="1"
         id="stop228" /></linearGradient><mask
       maskUnits="userSpaceOnUse"
       x="0"
       y="0"
       width="1"
       height="1"
       id="mask232"><g
         id="g242"><g
           id="g240"><g
             id="g238"><g
               id="g236"><path
                 d="M -32768,32767 H 32767 V -32768 H -32768 Z"
                 style="fill:url(#linearGradient230);stroke:none"
                 id="path234" /></g></g></g></g></mask><linearGradient
       x1="0"
       y1="0"
       x2="1"
       y2="0"
       gradientUnits="userSpaceOnUse"
       gradientTransform="matrix(23.184473,-52.742088,-52.742088,-23.184473,516.69916,604.19806)"
       spreadMethod="pad"
       id="linearGradient254"><stop
         style="stop-opacity:1;stop-color:#51c5f6"
         offset="0"
         id="stop248" /><stop
         style="stop-opacity:1;stop-color:#51c5f6"
         offset="0.48772854"
         id="stop250" /><stop
         style="stop-opacity:1;stop-color:#000000"
         offset="1"
         id="stop252" /></linearGradient><linearGradient
       x1="0"
       y1="0"
       x2="1"
       y2="0"
       gradientUnits="userSpaceOnUse"
       gradientTransform="matrix(-170.17505,-99.652054,-99.652054,170.17505,633.58038,566.28534)"
       spreadMethod="pad"
       id="linearGradient280"><stop
         style="stop-opacity:1;stop-color:#3059e4"
         offset="0"
         id="stop270" /><stop
         style="stop-opacity:1;stop-color:#3059e4"
         offset="0.00215567"
         id="stop272" /><stop
         style="stop-opacity:1;stop-color:#34d1f9"
         offset="0.5"
         id="stop274" /><stop
         style="stop-opacity:1;stop-color:#faee78"
         offset="0.99938576"
         id="stop276" /><stop
         style="stop-opacity:1;stop-color:#faee78"
         offset="1"
         id="stop278" /></linearGradient><clipPath
       clipPathUnits="userSpaceOnUse"
       id="clipPath290"><path
         d="M 0,1000 H 1000 V 0 H 0 Z"
         id="path288" /></clipPath><clipPath
       clipPathUnits="userSpaceOnUse"
       id="clipPath290-3"><path
         d="M 0,1000 H 1000 V 0 H 0 Z"
         id="path288-6" /></clipPath></defs><sodipodi:namedview
     id="namedview4"
     pagecolor="#ffffff"
     bordercolor="#666666"
     borderopacity="1.0"
     inkscape:pageshadow="2"
     inkscape:pageopacity="0.0"
     inkscape:pagecheckerboard="0"
     showgrid="false"
     inkscape:zoom="0.68679116"
     inkscape:cx="728.02335"
     inkscape:cy="188.55805"
     inkscape:window-width="1920"
     inkscape:window-height="999"
     inkscape:window-x="0"
     inkscape:window-y="44"
     inkscape:window-maximized="1"
     inkscape:current-layer="g8" /><g
     id="g8"
     inkscape:groupmode="layer"
     inkscape:label="Final"
     transform="matrix(1.3333333,0,0,-1.3333333,-129.67749,967.56351)"><g
       id="g10"
       transform="matrix(0.86595373,0,0,0.86595373,-175.04599,51.28808)"><g
         id="g12"
         clip-path="url(#clipPath16)"><g
           id="g18"
           transform="translate(407.228,476.873)"><path
             d="m 0,0 c 0,-0.324 -0.041,-0.648 -0.081,-0.973 -0.446,-2.877 -2.796,-4.984 -5.592,-5.186 -2.958,2.066 -4.66,5.713 -4.093,9.522 0.122,0.649 0.244,1.297 0.487,1.865 1.216,0.688 2.593,1.012 4.052,0.81 C -4.457,5.916 -3.769,5.673 -3.12,5.309 -2.796,5.146 -2.512,4.903 -2.229,4.66 -1.904,4.376 -1.58,4.093 -1.337,3.769 -1.296,3.688 -1.256,3.646 -1.215,3.566 -0.972,3.282 -0.811,2.999 -0.688,2.715 -0.608,2.634 -0.567,2.513 -0.527,2.432 -0.365,2.066 -0.243,1.702 -0.162,1.297 -0.041,0.892 0,0.445 0,0"
             style="fill:#ffffff;fill-opacity:1;fill-rule:nonzero;stroke:none"
             id="path20" /></g></g></g><g
       id="g22"
       transform="matrix(0.86595373,0,0,0.86595373,-175.04599,51.28808)"><g
         id="g24"><g
           id="g30"><g
             id="g32"><path
               d="m 491.919,747.68 c -0.527,0 -1.054,0 -1.581,-0.04 v 0 c -0.648,0 -1.256,0 -1.903,-0.041 v 0 c -0.649,0 -1.297,-0.04 -1.946,-0.081 v 0 c -0.446,0 -0.892,-0.04 -1.337,-0.081 v 0 h -0.121 c -1.379,-0.081 -2.797,-0.162 -4.174,-0.283 v 0 c -1.419,-0.122 -2.797,-0.243 -4.215,-0.405 v 0 c -0.729,-0.081 -1.499,-0.163 -2.229,-0.285 v 0 c -0.486,-0.04 -0.973,-0.121 -1.459,-0.162 v 0 c -0.324,-0.04 -0.688,-0.081 -1.013,-0.121 v 0 c -0.526,-0.081 -1.053,-0.162 -1.579,-0.243 v 0 l -1.014,-0.162 c -0.364,-0.081 -0.689,-0.122 -1.054,-0.162 v 0 c -0.324,-0.081 -0.648,-0.122 -0.972,-0.162 v 0 c -0.324,-0.081 -0.649,-0.121 -0.973,-0.162 v 0 c -0.081,-0.041 -0.202,-0.082 -0.324,-0.082 v 0 c -0.649,-0.121 -1.256,-0.243 -1.864,-0.364 v 0 c -0.648,-0.121 -1.337,-0.242 -1.985,-0.365 v 0 c -0.527,-0.121 -1.013,-0.243 -1.499,-0.324 v 0 c -0.366,-0.081 -0.771,-0.162 -1.095,-0.243 v 0 c -0.04,0 -0.121,-0.04 -0.162,-0.04 v 0 c -0.243,-0.081 -0.526,-0.122 -0.81,-0.203 v 0 c -0.244,-0.04 -0.527,-0.121 -0.811,-0.162 v 0 c -0.527,-0.162 -1.093,-0.284 -1.621,-0.446 v 0 c -0.485,-0.081 -0.972,-0.243 -1.458,-0.365 v 0 c -0.122,-0.04 -0.284,-0.081 -0.405,-0.121 v 0 c -0.648,-0.162 -1.257,-0.324 -1.864,-0.486 v 0 c -1.257,-0.366 -2.473,-0.73 -3.728,-1.095 v 0 c -0.162,-0.04 -0.325,-0.121 -0.528,-0.162 v 0 c -0.324,-0.121 -0.648,-0.202 -1.012,-0.324 v 0 c -0.811,-0.243 -1.621,-0.526 -2.432,-0.811 v 0 c -0.405,-0.162 -0.81,-0.283 -1.256,-0.445 v 0 c -0.446,-0.162 -0.891,-0.324 -1.337,-0.486 v 0 c -0.568,-0.203 -1.094,-0.406 -1.621,-0.609 v 0 c -0.325,-0.121 -0.689,-0.242 -1.013,-0.364 v 0 c -0.527,-0.202 -1.053,-0.446 -1.621,-0.648 v 0 c -0.445,-0.202 -0.891,-0.364 -1.337,-0.567 v 0 c -0.486,-0.203 -0.972,-0.406 -1.418,-0.608 v 0 c -0.973,-0.446 -1.986,-0.852 -2.959,-1.296 v 0 c -1.013,-0.447 -1.985,-0.934 -2.917,-1.378 v 0 c -0.405,-0.203 -0.811,-0.406 -1.216,-0.609 v 0 c -0.769,-0.445 -1.58,-0.85 -2.39,-1.255 v 0 c -1.095,-0.568 -2.188,-1.176 -3.283,-1.825 v 0 c -0.365,-0.202 -0.77,-0.404 -1.134,-0.648 v 0 c -0.608,-0.364 -1.175,-0.729 -1.783,-1.053 v 0 c -0.365,-0.243 -0.77,-0.486 -1.135,-0.729 v 0 c -0.527,-0.324 -1.013,-0.648 -1.539,-0.973 v 0 c -0.447,-0.284 -0.892,-0.608 -1.338,-0.891 v 0 c -1.054,-0.69 -2.106,-1.419 -3.12,-2.149 v 0 c -0.608,-0.445 -1.216,-0.85 -1.783,-1.296 v 0 c -0.568,-0.406 -1.054,-0.811 -1.58,-1.216 v 0 c -0.609,-0.446 -1.176,-0.891 -1.743,-1.377 v 0 c -2.634,-2.067 -5.105,-4.255 -7.536,-6.646 v 0 h -0.042 c -0.121,-0.121 -0.283,-0.284 -0.445,-0.486 v 0 c -0.081,0 -0.122,-0.081 -0.204,-0.162 v 0 c -0.647,-0.608 -1.295,-1.256 -1.903,-1.904 v 0 c -1.013,-1.054 -1.094,-2.473 -0.527,-3.567 v 0 c 0.04,-0.041 0.081,-0.122 0.121,-0.203 v 0 c 0,0 0,-0.04 0.041,-0.04 v 0 c 0.121,-0.243 0.284,-0.486 0.527,-0.689 v 0 h 0.041 c 0.161,-0.121 0.323,-0.243 0.485,-0.364 v 0 c 0.325,-0.243 0.73,-0.365 1.176,-0.446 v 0 c 0.121,0 0.243,-0.04 0.364,-0.04 v 0 h 0.446 c 0.203,0.04 0.364,0.081 0.567,0.161 v 0 h 0.082 c 1.702,0.527 3.606,1.094 5.632,1.661 v 0 c 0.202,0.041 0.406,0.081 0.567,0.122 v 0 c 0.364,0.122 0.689,0.203 1.013,0.284 v 0 c 0.527,0.122 1.014,0.243 1.581,0.405 v 0 c 0.04,0 0.081,0 0.162,0.041 v 0 c 0.567,0.121 1.175,0.283 1.783,0.405 v 0 c 0.648,0.162 1.256,0.284 1.904,0.406 v 0 c 0.405,0.121 0.851,0.243 1.256,0.324 v 0 c 0.365,0.04 0.729,0.12 1.095,0.202 v 0 c 0.202,0.041 0.405,0.081 0.567,0.122 v 0 c 2.269,0.445 4.62,0.85 7.05,1.216 v 0 c 0.324,0.04 0.609,0.081 0.933,0.162 v 0 c 0.324,0.04 0.648,0.081 0.931,0.121 v 0 c 0.528,0.041 1.014,0.122 1.54,0.203 v 0 c 0.649,0.081 1.297,0.162 1.945,0.243 v 0 c 0.122,0 0.243,0 0.365,0.04 v 0 c 0.608,0.081 1.256,0.122 1.905,0.203 v 0 h 0.081 c 1.337,0.121 2.674,0.243 4.052,0.324 v 0 c 0.688,0.081 1.418,0.122 2.107,0.162 v 0 c 0.284,0 0.568,0.041 0.892,0.041 v 0 c 0.769,0.041 1.54,0.081 2.309,0.122 v 0 h 0.244 c 0.85,0.04 1.741,0.04 2.593,0.081 v 0 c 1.094,0 2.229,0.04 3.363,0.04 v 0 c 0.851,-0.04 1.661,-0.04 2.553,-0.04 v 0 c 0.851,0 1.702,-0.041 2.593,-0.041 v 0 c 0.852,-0.04 1.743,-0.081 2.594,-0.121 v 0 c 0.891,-0.041 1.783,-0.122 2.675,-0.163 v 0 h 0.039 c 0.933,-0.081 1.824,-0.162 2.797,-0.243 v 0 h 0.283 c 5.268,-0.486 10.699,-1.257 16.331,-2.391 v 0 h 0.121 c 0,0 0.081,-0.04 0.203,-0.04 v 0 c 0.283,-0.082 0.73,-0.162 1.135,-0.243 v 0 c 0.081,0 0.202,-0.041 0.283,-0.041 v 0 c 0.041,0 0.122,-0.04 0.162,-0.04 v 0 c 0.325,-0.081 0.649,-0.122 0.973,-0.203 v 0 c 0.122,-0.04 0.284,-0.081 0.405,-0.121 v 0 c 0.122,0 0.284,-0.041 0.405,-0.081 v 0 c 0.487,-0.123 0.932,-0.204 1.378,-0.325 v 0 c 0.446,-0.081 0.891,-0.203 1.337,-0.324 v 0 c 0.081,0 0.162,-0.041 0.243,-0.041 v 0 c 0.081,-0.04 0.122,-0.04 0.203,-0.081 v 0 h 0.121 c 0.649,-0.202 1.338,-0.364 1.986,-0.526 v 0 c 0.082,0 0.122,-0.041 0.203,-0.041 v 0 c 0.608,-0.163 1.215,-0.325 1.824,-0.527 v 0 h 0.121 c 0.648,-0.203 1.337,-0.405 2.026,-0.608 v 0 c 1.418,-0.406 2.877,-0.85 4.335,-1.337 v 0 c 0.285,-0.081 0.609,-0.202 0.933,-0.284 v 0 l 0.364,-0.121 c 0.487,-0.203 1.014,-0.365 1.5,-0.526 v 0 c 0.405,-0.123 0.769,-0.244 1.134,-0.406 v 0 c 0.243,-0.081 0.487,-0.162 0.77,-0.284 v 0 c 2.513,-0.891 5.025,-1.864 7.577,-2.958 v 0 c 0.649,-0.243 1.297,-0.527 1.905,-0.81 v 0 c 0.568,-0.243 1.095,-0.487 1.662,-0.729 v 0 c 0.73,-0.325 1.459,-0.649 2.189,-1.014 v 0 c 0.648,-0.283 1.296,-0.608 1.944,-0.932 v 0 c 0.041,0 0.081,-0.041 0.081,-0.041 v 0 c 1.013,-0.485 2.066,-1.013 3.079,-1.539 v 0 c 1.865,-0.932 3.728,-1.945 5.633,-2.999 v 0 c 0.324,-0.162 0.608,-0.365 0.932,-0.526 v 0 c 1.256,-0.73 2.472,-1.46 3.729,-2.189 v 0 c 0.121,-0.081 0.283,-0.162 0.404,-0.243 v 0 c 0.608,-0.325 1.176,-0.689 1.743,-1.054 v 0 c 1.621,-1.012 3.241,-2.066 4.863,-3.16 v 0 h 0.04 c 0.446,-0.284 0.851,-0.567 1.296,-0.852 v 0 c 0.568,-0.404 1.135,-0.769 1.702,-1.174 v 0 c 0.244,-0.162 0.528,-0.365 0.77,-0.527 v 0 c 0.852,-0.649 1.662,-1.256 2.473,-1.824 v 0 h 0.04 c 0.972,-0.77 1.945,-1.499 2.877,-2.228 v 0 c 0.405,-0.243 0.77,-0.567 1.135,-0.891 v 0 c 0.486,-0.366 0.932,-0.729 1.378,-1.095 v 0 c 0.081,-0.081 0.201,-0.162 0.283,-0.243 v 0 c 0.365,-0.283 0.689,-0.567 1.013,-0.851 v 0 c 0.689,-0.608 1.377,-1.215 2.026,-1.783 v 0 c 0.608,-0.567 1.176,-1.094 1.743,-1.702 v 0 c 0.364,-0.324 0.688,-0.648 1.054,-0.972 v 0 c 0.404,-0.405 0.85,-0.851 1.255,-1.256 v 0 c 0.284,-0.284 0.568,-0.567 0.851,-0.891 v 0 c 0.852,-0.811 1.581,-1.622 2.31,-2.473 v 0 c 0.364,-0.364 0.689,-0.769 1.013,-1.135 v 0 c 0.04,-0.04 0.081,-0.121 0.162,-0.162 v 0 c 0.648,-0.769 1.256,-1.499 1.863,-2.268 v 0 c 0.082,-0.122 0.164,-0.244 0.243,-0.365 v 0 c 0.406,-0.527 0.772,-1.054 1.177,-1.58 v 0 c 2.552,-3.445 4.579,-6.889 6.038,-10.374 v 0 c 0.324,-0.649 0.607,-1.297 0.809,-1.985 v 0 c 0.122,-0.244 0.244,-0.487 0.284,-0.73 v 0 c 0.041,-0.081 0.081,-0.162 0.122,-0.243 v 0 c 0.121,-0.324 0.243,-0.649 0.365,-0.973 v 0 c 0.04,-0.081 0.04,-0.203 0.081,-0.284 v 0 c 0,-0.04 0,-0.081 0.04,-0.161 v 0 c 0.122,-0.365 0.284,-0.73 0.365,-1.054 v 0 c 0.284,-0.972 0.527,-1.945 0.77,-2.918 v 0 c 0.203,-0.851 0.364,-1.701 0.527,-2.593 v 0 c 0.113,-0.792 0.221,-1.584 0.301,-2.376 v 0 c 0.012,-0.113 0.01,-0.225 0.022,-0.337 v 0 -0.164 c 0.163,-1.702 0.204,-3.364 0.163,-5.066 v 0 c 0,-0.283 0,-0.567 -0.04,-0.85 v 0 c 0,-0.366 0,-0.73 -0.042,-1.095 v 0 c 0,-0.243 -0.039,-0.485 -0.039,-0.688 v 0 c -0.042,-0.325 -0.081,-0.608 -0.122,-0.892 v 0 -0.04 -0.203 C 565.993,588.754 510.153,549.529 421.411,518.326 v 0 c -2.674,-0.972 -5.228,-1.903 -7.821,-2.957 v 0 c -0.081,0 -0.122,0 -0.162,-0.041 v 0 c -0.04,-0.04 -0.08,-0.04 -0.121,-0.04 v 0 c -41.13,-16.047 -66.659,-38.577 -66.659,-55.11 v 0 c 0,-0.406 0,-0.769 0.04,-1.175 v 0 c 0.325,-4.499 1.703,-6.484 3.363,-7.537 v 0 c 3.404,-0.649 6.767,-1.175 10.132,-1.622 v 0 c 7.496,-1.052 14.992,-1.498 22.367,-1.215 v 0 c 7.334,0.365 14.588,1.5 21.518,4.012 v 0 c 3.403,1.134 6.645,2.593 9.846,4.336 v 0 c 2.229,1.216 4.295,-1.743 2.472,-3.485 v 0 c -2.836,-2.675 -6.078,-5.026 -9.563,-6.929 v 0 c -7.335,-4.012 -15.682,-5.998 -23.908,-6.403 v 0 c -8.266,-0.283 -16.451,0.851 -24.151,3.202 v 0 c -0.162,0.04 -0.324,0.081 -0.487,0.162 v 0 c 9.159,-18.925 50.694,-27.11 96.726,-15.318 v 0 c 97.09,24.921 235.716,109.328 189.035,221.817 v 0 c -2.958,7.132 -6.362,13.858 -10.09,20.22 v 0 c -4.133,6.97 -8.753,13.494 -13.737,19.532 v 0 l -0.04,0.041 c -1.135,1.458 -2.311,2.795 -3.525,4.173 v 0 c -0.853,1.013 -1.744,2.026 -2.675,2.999 v 0 c -2.675,2.755 -5.349,5.389 -8.105,7.942 v 0 c -0.04,0.041 -0.04,0.081 -0.081,0.081 v 0 c -0.324,0.324 -0.688,0.648 -1.013,0.972 v 0 c -0.04,0 -0.04,0.041 -0.081,0.081 v 0 c -0.04,0.042 -0.121,0.081 -0.162,0.122 v 0 h -0.04 c -0.041,0.081 -0.081,0.081 -0.122,0.121 v 0 c -7.659,6.849 -15.844,12.846 -24.475,17.911 v 0 c -0.203,0.162 -0.365,0.284 -0.446,0.324 v 0 l -0.04,0.041 h -0.041 c -2.675,1.58 -5.389,3.08 -8.145,4.538 v 0 c -1.377,0.69 -2.755,1.378 -4.133,2.067 v 0 c -0.244,0.121 -0.487,0.244 -0.73,0.364 v 0 c -0.769,0.325 -1.499,0.69 -2.228,1.014 v 0 l -0.122,0.04 c -0.648,0.324 -1.337,0.609 -1.986,0.892 v 0 c -0.12,0.041 -0.243,0.122 -0.363,0.162 v 0 c -0.447,0.203 -0.973,0.405 -1.46,0.608 v 0 c -0.324,0.163 -0.688,0.324 -1.053,0.446 v 0 c -0.446,0.202 -0.932,0.404 -1.378,0.608 v 0 c -0.325,0.121 -0.608,0.243 -0.892,0.324 v 0 c -0.365,0.162 -0.73,0.324 -1.134,0.445 v 0 c -1.013,0.406 -2.067,0.811 -3.121,1.175 v 0 c -0.689,0.284 -1.377,0.527 -2.067,0.77 v 0 c -0.162,0.081 -0.363,0.121 -0.526,0.163 v 0 c -1.215,0.445 -2.512,0.891 -3.768,1.255 v 0 c -0.203,0.081 -0.366,0.122 -0.567,0.203 v 0 h -0.042 c -0.486,0.202 -1.012,0.325 -1.539,0.487 v 0 c -0.486,0.162 -0.973,0.324 -1.459,0.445 v 0 c -0.324,0.122 -0.689,0.243 -1.013,0.324 v 0 c -0.365,0.122 -0.729,0.203 -1.134,0.325 v 0 c -0.081,0.041 -0.162,0.041 -0.285,0.08 v 0 c -0.039,0 -0.12,0.041 -0.162,0.041 v 0 c -0.039,0.04 -0.12,0.04 -0.162,0.082 v 0 c -0.283,0.081 -0.567,0.121 -0.891,0.201 v 0 c -0.121,0.041 -0.283,0.081 -0.405,0.123 v 0 c -0.203,0.08 -0.405,0.12 -0.608,0.162 v 0 c -0.607,0.162 -1.174,0.324 -1.783,0.486 v 0 c -0.121,0 -0.243,0.04 -0.364,0.081 v 0 c -0.811,0.202 -1.621,0.405 -2.472,0.607 v 0 c -0.162,0.041 -0.284,0.081 -0.446,0.122 v 0 c -0.568,0.122 -1.176,0.244 -1.742,0.406 v 0 c -0.163,0.04 -0.365,0.081 -0.527,0.081 v 0 c -0.405,0.121 -0.81,0.202 -1.216,0.283 v 0 c -0.243,0.041 -0.446,0.081 -0.648,0.122 v 0 c -0.081,0.04 -0.162,0.04 -0.243,0.081 v 0 c -0.73,0.121 -1.419,0.283 -2.147,0.406 v 0 c -0.69,0.161 -1.378,0.282 -2.067,0.404 v 0 c -0.041,0 -0.122,0.041 -0.164,0.041 v 0 c -0.647,0.121 -1.336,0.202 -1.985,0.324 v 0 l -0.324,0.04 c -0.688,0.122 -1.378,0.243 -2.066,0.324 v 0 c -0.729,0.122 -1.499,0.244 -2.27,0.365 v 0 h -0.162 c -0.527,0.081 -1.013,0.121 -1.499,0.202 v 0 c -0.445,0.081 -0.931,0.122 -1.377,0.162 v 0 c -0.446,0.081 -0.932,0.122 -1.419,0.204 v 0 c -0.486,0.04 -0.973,0.081 -1.417,0.121 v 0 c -0.609,0.081 -1.177,0.122 -1.784,0.203 v 0 h -0.203 -0.081 c -0.729,0.081 -1.458,0.162 -2.229,0.202 v 0 h -0.04 c -0.608,0.041 -1.257,0.081 -1.905,0.122 v 0 c -1.053,0.081 -2.147,0.162 -3.241,0.202 v 0 c -0.688,0.041 -1.418,0.081 -2.147,0.081 v 0 c -0.69,0.041 -1.378,0.041 -2.108,0.081 v 0 h -1.215 c -1.135,0.041 -2.27,0.041 -3.445,0.041 v 0 c -0.446,0 -0.891,-0.041 -1.337,-0.041 m 16.938,-275.345 c -2.31,0.324 -4.376,1.62 -5.714,3.526 v 0 c -1.337,1.944 -1.864,4.375 -1.417,6.685 v 0 c 0.364,1.783 0.201,3.606 -0.407,5.349 v 0 c -0.932,2.635 -2.876,4.701 -5.429,5.835 v 0 c -2.675,1.175 -4.539,3.607 -4.984,6.484 v 0 c -0.446,2.877 0.567,5.794 2.755,7.739 v 0 c 1.865,1.703 3.809,3.485 5.795,5.309 v 0 c 17.87,16.329 38.131,34.889 55.92,33.471 v 0 c 0.973,-0.081 1.904,-0.203 2.755,-0.324 v 0 c 11.347,-1.703 16.331,-8.186 14.872,-19.248 v 0 c 2.351,-2.797 3.404,-6.484 3.08,-10.657 v 0 c -0.852,-10.861 -11.549,-24.192 -20.14,-28.406 v 0 c -0.81,-0.406 -1.661,-0.811 -2.593,-1.257 v 0 c -8.509,-4.254 -22.773,-11.386 -41.819,-14.506 v 0 c -0.477,-0.065 -0.954,-0.107 -1.431,-0.107 v 0 c -0.414,0 -0.828,0.032 -1.243,0.107 m -100.129,16.208 c 5.389,-0.81 9.076,-5.835 8.265,-11.265 v 0 c -0.81,-5.389 -5.834,-9.076 -11.223,-8.266 v 0 c -1.581,0.243 -2.999,0.85 -4.215,1.702 v 0 c 2.796,0.202 5.146,2.31 5.592,5.186 v 0 c 0.041,0.324 0.081,0.649 0.081,0.973 v 0 c 0,0.446 -0.04,0.892 -0.162,1.297 v 0 c -0.082,0.405 -0.203,0.769 -0.365,1.135 v 0 c -0.041,0.081 -0.081,0.202 -0.161,0.282 v 0 c -0.123,0.285 -0.285,0.568 -0.528,0.853 v 0 c -0.04,0.08 -0.081,0.12 -0.121,0.201 v 0 c -0.243,0.324 -0.567,0.608 -0.892,0.892 v 0 c -0.283,0.243 -0.567,0.446 -0.891,0.648 v 0 c -0.649,0.365 -1.337,0.608 -2.107,0.73 v 0 c -1.459,0.203 -2.837,-0.122 -4.053,-0.811 v 0 h -0.04 c 1.58,4.377 6.079,7.133 10.82,6.443 m 89.634,14.184 c -0.359,-0.308 -0.531,-0.732 -0.533,-1.152 v 0 c -0.003,-0.575 0.312,-1.144 0.898,-1.402 v 0 c 4.173,-1.864 7.577,-5.308 9.238,-9.928 v 0 c 0.659,-1.873 0.985,-3.811 0.989,-5.713 v 0 c 0.002,-1.141 -0.112,-2.27 -0.34,-3.364 v 0 c -0.017,-0.102 -0.026,-0.203 -0.026,-0.302 v 0 c 0,-0.807 0.565,-1.494 1.322,-1.603 v 0 h 0.486 c 19.978,3.283 34.323,11.185 42.468,15.156 v 0 c 7.016,3.43 16.24,15.451 16.241,23.543 v 0 c 10e-4,2.423 -0.826,4.494 -2.787,5.876 v 0 c -0.434,0.309 -0.577,0.869 -0.576,1.6 v 0 c 0.003,1.446 0.568,3.56 0.566,5.727 v 0 c -0.004,3.501 -1.491,7.14 -9.23,8.314 v 0 c -0.689,0.082 -1.458,0.163 -2.269,0.243 v 0 c -0.467,0.038 -0.938,0.056 -1.414,0.056 v 0 c -16.395,0 -38.297,-21.97 -55.033,-37.051"
               style="fill:url(#linearGradient40);stroke:none"
               id="path42" /></g></g></g></g><g
       id="g44"
       transform="matrix(0.86595373,0,0,0.86595373,-175.04599,51.28808)"><g
         id="g46"><g
           id="g52"><g
             id="g54"><path
               d="m 604.318,705.942 -0.612,-4.139 4.577,-10.104 0.27,-0.603 c 0.294,-1.812 0.535,-3.567 0.726,-5.266 v 0 c 0.273,-2.385 0.449,-4.661 0.539,-6.826 v 0 c 0.006,-0.009 0.005,-0.017 0.003,-0.024 v 0 c 0.013,-0.235 0.019,-0.461 0.023,-0.695 v 0 c -0.005,-0.039 -0.003,-0.079 0,-0.113 v 0 c 0.877,-26.179 -10.607,-36.93 -14.294,-41.18 v 0 c -0.009,-0.007 -0.019,-0.013 -0.019,-0.013 v 0 c -2.936,-3.376 -14.093,-1.555 -24.982,-9.546 v 0 l -0.045,-0.033 c -0.017,-0.014 -0.035,-0.019 -0.044,-0.025 v 0 l -0.036,-0.027 c 0,0 -0.009,-0.007 -0.018,-0.014 v 0 c -2.217,-1.647 -4.424,-3.696 -6.552,-6.296 v 0 c -0.031,-0.043 -0.071,-0.094 -0.101,-0.137 v 0 c -1.4,-1.706 -2.745,-3.646 -4.043,-5.85 v 0 c -0.803,-1.372 -1.589,-2.85 -2.344,-4.438 v 0 c -0.505,-1.056 -0.994,-2.162 -1.476,-3.324 v 0 c -12.847,-31.115 -45.079,-28.112 -78.92,-34.498 v 0 c -31.312,-5.92 -59.191,-50.114 -63.183,-56.687 v 0 c -0.29,-0.478 -0.453,-0.758 -0.485,-0.809 v 0 l 0.008,-10e-4 c 0.025,0.004 0.066,0.014 0.134,0.035 v 0 c 0.873,0.246 5.497,1.567 12.845,3.857 v 0 c 20.607,6.419 62.632,20.501 103.347,40.121 v 0 c 27.815,13.395 55.012,29.389 74.34,47.284 v 0 c 0.386,0.367 0.769,0.727 1.151,1.078 v 0 c 0.384,0.36 0.759,0.72 1.126,1.074 v 0 c 1.215,1.173 2.379,2.337 3.493,3.493 v 0 c 16.363,16.98 25.284,35.554 20.936,55.163 v 0 c -1.106,4.986 -3.069,10.037 -5.988,15.145 v 0 c -0.025,0.044 -0.043,0.086 -0.068,0.13 v 0 c -2.146,3.739 -4.803,7.506 -8.001,11.299 v 0 c -3.396,4.025 -7.412,8.086 -12.098,12.186 v 0 c -0.013,0.01 -0.02,0.019 -0.02,0.019 v 0 c -0.043,0.038 -0.093,0.078 -0.135,0.117 v 0 z"
               style="fill:url(#linearGradient62);stroke:none"
               id="path64" /></g></g></g></g><g
       id="g66"
       transform="matrix(0.86595373,0,0,0.86595373,-175.04599,51.28808)"><g
         id="g68"><g
           id="g74"><g
             id="g76"><path
               d="m 506.686,767.503 c -14.541,-3.647 -44.579,-17.364 -62.128,-12.58 v 0 c -17.556,4.79 -46.752,0.389 -63.709,-26.698 v 0 c -1.484,-2.159 -3.466,-6.331 -5.922,-11.033 v 0 c -3.943,-7.567 -9.098,-16.516 -15.328,-20.694 v 0 c -9.065,-6.083 -10.793,-21.069 1.095,-21.516 v 0 c 1.349,-0.052 2.878,0.077 4.586,0.436 v 0 c 16.783,3.5 22.125,13.833 41.273,10.551 v 0 c 19.151,-3.283 52.74,-4.791 70.003,5.629 v 0 c 11.26,6.794 21.447,0.165 28.298,-7.49 v 0 c 1.588,-1.766 2.996,-3.594 4.196,-5.317 v 0 c 1.57,-2.246 2.78,-4.325 3.586,-5.893 v 0 c 4.079,-7.99 17.163,-18.855 31.479,-25.371 v 0 c 11.73,-5.345 16.107,-22.436 15.603,-32.317 v 0 c 0,-0.056 -0.008,-0.103 -0.008,-0.159 v 0 c 10e-4,-0.049 0.004,-0.081 -0.002,-0.121 v 0 c 0.219,0.385 0.442,0.753 0.666,1.112 v 0 c 0.042,0.066 0.076,0.133 0.118,0.199 v 0 c 0.203,0.323 0.393,0.631 0.599,0.929 v 0 c 0.147,0.226 0.294,0.453 0.447,0.671 v 0 c 1.055,1.55 2.133,2.944 3.238,4.197 v 0 c 0.05,0.065 0.107,0.12 0.166,0.184 v 0 c 0.147,0.178 0.31,0.355 0.464,0.524 v 0 l 0.106,0.121 c 0.408,0.459 0.827,0.893 1.259,1.302 v 0 l 0.063,0.054 c 0.707,0.687 1.414,1.327 2.139,1.924 v 0 c 0.479,0.401 0.963,0.785 1.443,1.146 v 0 c 0.027,0.02 0.053,0.04 0.081,0.06 v 0 l 0.008,0.055 c 0.36,3.317 0.339,6.62 -0.084,9.921 v 0 c -0.114,0.94 -0.268,1.879 -0.456,2.815 v 0 c -0.045,0.231 -0.09,0.463 -0.136,0.695 v 0 c -0.166,0.756 -0.348,1.514 -0.555,2.268 v 0 c -0.009,0.05 -0.019,0.091 -0.034,0.142 v 0 l -0.056,0.169 c -0.214,0.698 -0.443,1.409 -0.711,2.139 v 0 c -0.031,0.101 -0.064,0.203 -0.106,0.305 v 0 c -0.112,0.315 -0.233,0.63 -0.361,0.946 v 0 c -0.028,0.085 -0.062,0.179 -0.104,0.265 v 0 c -1.301,3.345 -3.122,6.994 -5.639,10.844 v 0 c -0.004,0.016 -0.018,0.034 -0.031,0.053 v 0 c -0.144,0.214 -0.281,0.428 -0.431,0.652 v 0 c -0.008,0.001 -0.008,0.009 -0.008,0.009 v 0 c -0.678,1.026 -1.412,2.069 -2.207,3.121 v 0 c -0.088,0.109 -0.168,0.218 -0.254,0.336 v 0 c -0.65,0.853 -1.337,1.72 -2.056,2.592 v 0 c -0.32,0.378 -0.648,0.757 -0.985,1.128 v 0 c -0.741,0.827 -1.507,1.658 -2.305,2.486 v 0 c -0.284,0.293 -0.577,0.585 -0.868,0.887 v 0 c -0.412,0.407 -0.838,0.825 -1.264,1.243 v 0 c -0.344,0.333 -0.695,0.668 -1.047,0.994 v 0 c -0.393,0.373 -0.794,0.739 -1.205,1.106 v 0 c -0.409,0.375 -0.819,0.743 -1.236,1.112 v 0 c -0.418,0.368 -0.851,0.739 -1.277,1.108 v 0 c -0.342,0.286 -0.676,0.576 -1.026,0.863 v 0 c -0.101,0.079 -0.199,0.166 -0.299,0.246 v 0 c -0.442,0.365 -0.893,0.729 -1.352,1.096 v 0 c -0.916,0.734 -1.856,1.47 -2.823,2.195 v 0 c -0.395,0.301 -0.792,0.594 -1.197,0.896 v 0 c -0.302,0.222 -0.613,0.455 -0.923,0.679 v 0 c -0.284,0.203 -0.566,0.406 -0.848,0.61 v 0 c -0.253,0.182 -0.506,0.358 -0.76,0.541 v 0 c -0.253,0.182 -0.516,0.359 -0.777,0.543 v 0 c -0.552,0.389 -1.112,0.771 -1.665,1.144 v 0 c -0.102,0.072 -0.211,0.144 -0.313,0.208 v 0 c -0.328,0.227 -0.663,0.454 -0.992,0.664 v 0 c -0.481,0.331 -0.963,0.644 -1.446,0.951 v 0 c -0.503,0.333 -1,0.657 -1.506,0.975 v 0 c -0.651,0.42 -1.31,0.833 -1.964,1.237 v 0 c -0.579,0.361 -1.152,0.714 -1.726,1.057 v 0 c -0.941,0.576 -1.884,1.129 -2.821,1.673 v 0 c -0.443,0.26 -0.886,0.512 -1.33,0.764 v 0 c -1.803,1.027 -3.599,1.999 -5.393,2.929 v 0 c -1.422,0.738 -2.831,1.45 -4.238,2.129 v 0 c -0.03,0.012 -0.066,0.034 -0.096,0.046 v 0 c -0.643,0.315 -1.287,0.621 -1.933,0.92 v 0 c -0.734,0.352 -1.469,0.689 -2.199,1.008 v 0 c -0.548,0.252 -1.098,0.496 -1.64,0.731 v 0 c -0.64,0.282 -1.28,0.555 -1.915,0.82 v 0 c -2.55,1.078 -5.082,2.065 -7.595,2.967 v 0 c -0.258,0.096 -0.509,0.19 -0.762,0.268 v 0 c -0.371,0.145 -0.745,0.275 -1.119,0.404 v 0 c -0.504,0.172 -1.008,0.345 -1.513,0.51 v 0 c -0.121,0.043 -0.244,0.086 -0.365,0.128 v 0 c -0.313,0.104 -0.636,0.209 -0.95,0.305 v 0 c -0.925,0.309 -1.851,0.601 -2.772,0.885 v 0 c -0.514,0.16 -1.038,0.311 -1.545,0.452 v 0 c -0.684,0.201 -1.362,0.392 -2.04,0.583 v 0 c -0.036,0.021 -0.076,0.027 -0.116,0.033 v 0 c -0.607,0.173 -1.216,0.337 -1.826,0.502 v 0 c -0.061,0.017 -0.115,0.033 -0.178,0.043 v 0 c -0.672,0.175 -1.336,0.348 -2.002,0.512 v 0 c -0.038,0.015 -0.07,0.019 -0.108,0.026 v 0 c -0.077,0.027 -0.147,0.037 -0.216,0.056 v 0 c -0.078,0.02 -0.155,0.04 -0.224,0.058 v 0 c -0.457,0.118 -0.914,0.228 -1.364,0.328 v 0 c -0.449,0.107 -0.898,0.216 -1.349,0.317 v 0 c -0.279,0.066 -0.567,0.126 -0.847,0.185 v 0 c -0.319,0.072 -0.629,0.143 -0.949,0.208 v 0 c -0.055,0.008 -0.116,0.026 -0.179,0.035 v 0 c -0.085,0.02 -0.179,0.036 -0.28,0.058 v 0 c -0.405,0.086 -0.864,0.18 -1.121,0.234 v 0 c -0.116,0.026 -0.194,0.046 -0.194,0.046 v 0 -0.008 l -0.118,0.018 -2.814,0.403 -0.251,0.038 -1.194,0.174 -8.258,1.189 -0.448,0.067 c -0.006,0.009 -0.014,0.01 -0.014,0.01 v 0 c -0.008,0.002 -0.008,0.002 -0.016,-0.005 v 0 l -0.252,0.037 -3.12,0.45 -0.251,0.038 0.007,-0.009 c -0.944,0.079 -1.88,0.157 -2.809,0.226 v 0 H 456.7 c -0.89,0.063 -1.782,0.118 -2.657,0.162 v 0 l -0.008,0.002 c -0.877,0.044 -1.754,0.081 -2.617,0.108 v 0 c -0.872,0.028 -1.736,0.047 -2.584,0.063 v 0 l -0.008,10e-4 c -0.857,0.01 -1.7,0.017 -2.542,0.024 v 0 c -1.124,0.002 -2.242,-0.013 -3.336,-0.031 v 0 c -0.879,-0.019 -1.75,-0.048 -2.614,-0.078 v 0 c -0.073,-0.004 -0.154,-0.009 -0.226,-0.005 v 0 c -0.784,-0.034 -1.568,-0.068 -2.337,-0.111 v 0 c -0.299,-0.012 -0.591,-0.031 -0.883,-0.051 v 0 c -0.705,-0.038 -1.401,-0.085 -2.093,-0.141 v 0 c -1.379,-0.095 -2.739,-0.218 -4.076,-0.352 v 0 c -0.659,-0.061 -1.32,-0.129 -1.974,-0.207 v 0 c -0.116,-0.015 -0.238,-0.027 -0.351,-0.035 v 0 c -0.654,-0.077 -1.308,-0.154 -1.948,-0.242 v 0 c -0.523,-0.065 -1.039,-0.131 -1.549,-0.207 v 0 c -0.311,-0.041 -0.622,-0.082 -0.935,-0.13 v 0 c -0.311,-0.042 -0.624,-0.091 -0.929,-0.141 v 0 c -1.224,-0.183 -2.425,-0.379 -3.597,-0.586 v 0 c -1.18,-0.207 -2.32,-0.419 -3.436,-0.635 v 0 c -0.198,-0.034 -0.39,-0.077 -0.58,-0.112 v 0 c -0.364,-0.074 -0.73,-0.155 -1.094,-0.228 v 0 c -1.079,-0.23 -2.134,-0.463 -3.148,-0.695 v 0 c -0.616,-0.139 -1.224,-0.28 -1.808,-0.424 v 0 l -0.007,10e-4 c -0.059,-0.015 -0.118,-0.031 -0.166,-0.039 v 0 c -0.537,-0.143 -1.054,-0.273 -1.572,-0.404 v 0 c -0.334,-0.085 -0.66,-0.173 -0.986,-0.26 v 0 c -0.193,-0.05 -0.385,-0.101 -0.578,-0.153 v 0 c -2.052,-0.563 -3.936,-1.12 -5.647,-1.656 v 0 c -0.126,-0.038 -0.251,-0.074 -0.376,-0.095 v 0 c -0.123,-0.022 -0.246,-0.043 -0.368,-0.049 v 0 c -0.115,-0.015 -0.235,-0.012 -0.355,-0.011 v 0 c -0.125,0.002 -0.242,0.025 -0.363,0.042 v 0 c -0.426,0.066 -0.822,0.221 -1.162,0.439 v 0 c -0.175,0.115 -0.332,0.243 -0.48,0.378 v 0 c -0.451,0.422 -0.769,0.967 -0.921,1.552 v 0 c -0.006,0.018 -0.009,0.043 -0.015,0.059 v 0 c -0.007,0.01 -0.014,0.018 -0.004,0.025 v 0 c -0.028,0.085 -0.04,0.167 -0.043,0.248 v 0 c -0.147,0.881 0.085,1.833 0.838,2.618 v 0 c 0.668,0.694 1.351,1.385 2.047,2.058 v 0 l 0.009,0.007 c 0.153,0.161 0.314,0.322 0.482,0.473 v 0 c 2.401,2.334 4.914,4.553 7.523,6.662 v 0 c 0.575,0.459 1.151,0.919 1.732,1.368 v 0 c 0.519,0.403 1.044,0.797 1.579,1.197 v 0 c 0.597,0.448 1.194,0.887 1.806,1.316 v 0 c 1.019,0.736 2.05,1.447 3.094,2.14 v 0 c 0.457,0.308 0.912,0.609 1.366,0.901 v 0 c 0.508,0.333 1.007,0.658 1.521,0.973 v 0 c 0.381,0.24 0.763,0.479 1.143,0.71 v 0 c 0.593,0.36 1.185,0.719 1.783,1.062 v 0 c 0.38,0.232 0.767,0.454 1.153,0.668 v 0 c 1.082,0.623 2.177,1.228 3.279,1.816 v 0 c 1.186,0.622 2.38,1.236 3.577,1.834 v 0 c 1.928,0.952 3.887,1.851 5.871,2.706 v 0 c 0.474,0.209 0.946,0.41 1.425,0.603 v 0 c 0.454,0.195 0.909,0.383 1.361,0.556 v 0 c 0.531,0.216 1.061,0.433 1.597,0.633 v 0 c 0.335,0.142 0.676,0.274 1.015,0.391 v 0 c 0.538,0.208 1.075,0.415 1.618,0.606 v 0 c 0.452,0.173 0.91,0.336 1.367,0.491 v 0 c 0.417,0.154 0.832,0.299 1.254,0.436 v 0 c 0.807,0.287 1.611,0.559 2.428,0.812 v 0 c 0.338,0.11 0.685,0.226 1.019,0.319 v 0 c 0.179,0.062 0.348,0.116 0.524,0.17 v 0 c 1.231,0.383 2.466,0.749 3.706,1.091 v 0 c 0.622,0.178 1.242,0.349 1.869,0.511 v 0 c 0.134,0.036 0.268,0.073 0.402,0.109 v 0 c 0.494,0.133 0.978,0.26 1.478,0.378 v 0 c 0.535,0.135 1.077,0.269 1.618,0.396 v 0 c 0.268,0.071 0.543,0.135 0.808,0.19 v 0 c 0.276,0.07 0.542,0.134 0.816,0.19 v 0 c 0.408,0.098 0.823,0.188 1.238,0.277 v 0 c 0.499,0.109 0.997,0.218 1.494,0.32 v 0 c 0.672,0.138 1.342,0.27 2.012,0.401 v 0 c 0.605,0.125 1.216,0.233 1.828,0.349 v 0 c 0.123,0.021 0.247,0.043 0.362,0.065 v 0 c 0.321,0.056 0.636,0.121 0.958,0.169 v 0 c 0.321,0.055 0.651,0.109 0.971,0.157 v 0 c 0.346,0.059 0.692,0.12 1.038,0.172 v 0 l 1.035,0.156 c 0.518,0.082 1.043,0.155 1.56,0.229 v 0 c 0.346,0.051 0.689,0.096 1.033,0.14 v 0 c 0.485,0.072 0.968,0.135 1.442,0.19 v 0 c 0.745,0.097 1.497,0.183 2.24,0.263 v 0 c 1.397,0.157 2.798,0.29 4.204,0.406 v 0 c 1.4,0.117 2.788,0.219 4.189,0.295 v 0 c 0.04,0.003 0.088,0.003 0.129,0.005 v 0 c 0.445,0.021 0.891,0.05 1.335,0.07 v 0 c 0.647,0.031 1.302,0.06 1.948,0.083 v 0 c 0.621,0.018 1.251,0.042 1.879,0.052 v 0 c 0.532,0.015 1.064,0.031 1.594,0.031 v 0 c 0.452,0.011 0.902,0.016 1.352,0.019 v 0 c 1.141,0.004 2.28,0 3.417,-0.02 v 0 c 0.418,10e-4 0.825,-0.013 1.234,-0.019 v 0 c 0.704,-0.019 1.399,-0.036 2.102,-0.062 v 0 c 0.719,-0.021 1.437,-0.05 2.156,-0.086 v 0 c 1.083,-0.052 2.166,-0.112 3.247,-0.188 v 0 c 0.627,-0.039 1.263,-0.087 1.898,-0.135 v 0 l 0.039,-0.006 c 0.739,-0.049 1.485,-0.114 2.219,-0.193 v 0 l 0.007,-10e-4 c 0.026,0.005 0.057,-10e-4 0.08,-0.004 v 0 c 0.081,0.004 0.152,-0.006 0.215,-0.016 v 0 c 0.577,-0.055 1.163,-0.113 1.747,-0.178 v 0 c 0.388,-0.034 0.768,-0.075 1.155,-0.118 v 0 c 0.094,-0.015 0.182,-0.019 0.276,-0.034 v 0 c 0.474,-0.048 0.955,-0.104 1.427,-0.169 v 0 c 0.459,-0.045 0.924,-0.107 1.38,-0.168 v 0 c 0.495,-0.068 0.983,-0.133 1.479,-0.201 v 0 l 0.18,-0.028 c 0.756,-0.098 1.518,-0.206 2.264,-0.327 v 0 c 0.683,-0.103 1.379,-0.217 2.06,-0.336 v 0 l 0.322,-0.05 c 0.666,-0.109 1.338,-0.226 2.002,-0.351 v 0 l 0.157,-0.024 c 0.689,-0.121 1.367,-0.247 2.051,-0.391 v 0 c 0.72,-0.126 1.437,-0.275 2.152,-0.432 v 0 c 0.078,-0.019 0.163,-0.032 0.24,-0.052 v 0 c 0.219,-0.041 0.429,-0.089 0.648,-0.13 v 0 c 0.413,-0.079 0.816,-0.173 1.219,-0.266 v 0 c 0.172,-0.034 0.35,-0.077 0.521,-0.119 v 0 c 0.583,-0.121 1.165,-0.257 1.745,-0.401 v 0 c 0.158,-0.024 0.312,-0.063 0.474,-0.104 v 0 c 0.829,-0.198 1.641,-0.402 2.468,-0.616 v 0 c 0.116,-0.025 0.241,-0.052 0.356,-0.085 v 0 c 0.597,-0.147 1.191,-0.302 1.784,-0.472 v 0 c 0.202,-0.039 0.396,-0.092 0.587,-0.154 v 0 c 0.146,-0.038 0.293,-0.076 0.439,-0.122 v 0 c 0.286,-0.076 0.578,-0.152 0.863,-0.235 v 0 c 0.062,-0.018 0.116,-0.034 0.17,-0.051 v 0 c 0.062,-0.009 0.123,-0.035 0.176,-0.051 v 0 c 0.101,-0.022 0.193,-0.053 0.293,-0.084 v 0 c 0.371,-0.096 0.739,-0.208 1.1,-0.312 v 0 c 0.348,-0.093 0.693,-0.201 1.037,-0.31 v 0 c 0.493,-0.138 0.976,-0.292 1.466,-0.446 v 0 c 0.513,-0.159 1.028,-0.318 1.541,-0.483 v 0 c 1.632,-0.513 3.252,-1.056 4.867,-1.63 v 0 c 0.701,-0.251 1.402,-0.501 2.101,-0.761 v 0 c 1.043,-0.374 2.082,-0.774 3.113,-1.179 v 0 c 0.379,-0.145 0.751,-0.29 1.121,-0.442 v 0 c 0.295,-0.117 0.591,-0.234 0.885,-0.359 v 0 c 0.462,-0.183 0.923,-0.373 1.382,-0.572 v 0 c 0.364,-0.143 0.719,-0.293 1.08,-0.453 v 0 c 0.483,-0.201 0.973,-0.412 1.455,-0.622 v 0 c 0.12,-0.05 0.242,-0.101 0.361,-0.159 v 0 c 0.655,-0.284 1.309,-0.576 1.956,-0.875 v 0 l 0.143,-0.062 c 0.735,-0.335 1.471,-0.672 2.205,-1.025 v 0 c 2.3,-1.087 4.575,-2.228 6.834,-3.43 v 0 c 0.602,-0.316 1.195,-0.639 1.787,-0.977 v 0 c 1.535,-0.835 3.058,-1.701 4.566,-2.604 v 0 l -0.128,0.051 0.058,-0.04 c 1.274,-0.965 20.069,-15.419 28.199,-39.471 v 0 c 0.422,-1.237 0.817,-2.501 1.175,-3.792 v 0 c 0.349,-1.249 0.664,-2.509 0.949,-3.797 v 0 c 0.005,0.087 0.041,0.588 0.043,1.503 v 0 c 0.002,0.007 0.003,0.015 -0.003,0.024 v 0 c -0.002,1.365 0.372,3.252 -0.059,6.44 v 0 c -0.223,1.656 -0.363,3.749 -0.788,5.917 v 0 c -0.009,0.05 -0.024,0.108 -0.033,0.158 v 0 c -0.209,1.003 -0.473,2.062 -0.793,3.187 v 0 l 10e-4,0.008 c -0.966,3.375 -2.379,7.282 -3.776,11.573 v 0 l 0.002,0.008 c -0.008,0.001 -0.007,0.009 -0.007,0.009 v 0 c -0.289,0.903 -0.598,1.825 -0.928,2.774 v 0 c -0.023,0.06 -0.046,0.119 -0.069,0.18 v 0 c -0.027,0.084 -0.054,0.176 -0.088,0.27 v 0 c -0.519,1.556 -1.066,3.076 -1.653,4.554 v 0 c -0.179,0.461 -0.349,0.928 -0.534,1.398 v 0 l -0.06,0.025 c -1.764,4.098 -3.967,7.837 -7.105,11.018 v 0 c -3.096,3.144 -7.116,5.753 -12.532,7.635 v 0 c -18.489,6.419 -16.489,-2.267 -28.724,15.054 v 0 c -0.23,0.332 -0.474,0.682 -0.719,1.033 v 0 c -9.727,13.963 -22.061,18.734 -33.736,18.734 v 0 c -3.962,0 -7.849,-0.55 -11.531,-1.476"
               style="fill:url(#linearGradient82);stroke:none"
               id="path84" /></g></g></g></g><g
       id="g86"
       transform="matrix(0.86595373,0,0,0.86595373,-175.04599,51.28808)"><g
         id="g88"
         clip-path="url(#clipPath92)"><g
           id="g94"><g
             id="g96" /><g
             id="g122"
             mask="url(#mask110)"><g
               id="g124"><path
                 d="m 509.053,678.793 c 1.57,-2.246 2.78,-4.325 3.587,-5.893 v 0 c 4.079,-7.989 17.163,-18.855 31.478,-25.372 v 0 c 11.731,-5.344 16.107,-22.436 15.603,-32.316 v 0 c 0,-0.056 -0.007,-0.103 -0.008,-0.159 v 0 c -0.803,-1.372 -1.589,-2.85 -2.344,-4.438 v 0 c 0.073,0.109 0.14,0.228 0.197,0.347 v 0 c 0.717,1.433 1.43,2.754 2.145,3.97 v 0 c 0.219,0.384 0.444,0.753 0.666,1.112 v 0 c 0.042,0.065 0.076,0.133 0.119,0.199 v 0 c 0.201,0.323 0.393,0.63 0.599,0.929 v 0 c 0.776,1.206 1.542,2.279 2.271,3.228 v 0 c 0.068,0.078 0.13,0.165 0.2,0.251 v 0 c 0.061,0.087 0.12,0.166 0.189,0.252 v 0 c 0.032,0.043 0.072,0.093 0.102,0.137 v 0 c 3.552,4.455 6.297,6.15 6.552,6.296 v 0 c 0.009,0.007 0.017,0.013 0.017,0.013 v 0 l 0.037,0.027 0.043,0.026 0.003,0.008 0.043,0.025 0.002,0.008 33.945,25.754 -37.954,25.03 -26.148,1.815 -0.065,0.002 -0.127,0.011 -0.373,0.025 z"
                 style="fill:url(#linearGradient132);stroke:none"
                 id="path134" /></g></g></g></g></g><g
       id="g136"
       transform="matrix(0.86595373,0,0,0.86595373,-175.04599,51.28808)"><g
         id="g138"><g
           id="g144"><g
             id="g146"><path
               d="m 493.306,747.563 c -0.45,-0.004 -0.9,-0.008 -1.352,-0.02 v 0 c -0.529,10e-4 -1.062,-0.016 -1.593,-0.031 v 0 c -0.629,-0.009 -1.259,-0.034 -1.88,-0.052 v 0 c -0.645,-0.023 -1.3,-0.051 -1.946,-0.082 v 0 c -0.446,-0.021 -0.892,-0.05 -1.336,-0.07 v 0 c -0.04,-0.002 -0.089,-0.003 -0.13,-0.005 v 0 c -1.4,-0.076 -2.789,-0.179 -4.187,-0.296 v 0 c -1.407,-0.115 -2.808,-0.248 -4.205,-0.406 v 0 c -0.743,-0.08 -1.495,-0.166 -2.24,-0.262 v 0 c -0.475,-0.056 -0.958,-0.119 -1.442,-0.19 v 0 c -0.344,-0.045 -0.688,-0.089 -1.033,-0.141 v 0 c -0.517,-0.074 -1.042,-0.146 -1.561,-0.228 v 0 c -0.345,-0.053 -0.689,-0.105 -1.035,-0.156 v 0 c -0.345,-0.052 -0.691,-0.113 -1.038,-0.172 v 0 c -0.32,-0.049 -0.649,-0.103 -0.971,-0.158 v 0 c -0.32,-0.048 -0.635,-0.112 -0.956,-0.168 v 0 c -0.116,-0.022 -0.241,-0.044 -0.364,-0.066 v 0 c -0.612,-0.116 -1.223,-0.224 -1.828,-0.349 v 0 c -0.67,-0.13 -1.34,-0.262 -2.011,-0.4 v 0 c -0.498,-0.102 -0.996,-0.211 -1.494,-0.32 v 0 c -0.415,-0.09 -0.83,-0.179 -1.239,-0.278 v 0 c -0.273,-0.055 -0.54,-0.119 -0.815,-0.189 v 0 c -0.266,-0.057 -0.54,-0.119 -0.808,-0.191 v 0 c -0.541,-0.127 -1.084,-0.261 -1.618,-0.397 v 0 c -0.499,-0.117 -0.984,-0.243 -1.478,-0.378 v 0 c -0.134,-0.036 -0.268,-0.071 -0.403,-0.107 v 0 c -0.626,-0.162 -1.246,-0.333 -1.867,-0.512 v 0 c -1.24,-0.342 -2.477,-0.708 -3.707,-1.09 v 0 c -0.177,-0.055 -0.346,-0.109 -0.523,-0.171 v 0 c -0.019,-0.005 -0.04,-0.012 -0.059,-0.018 v 0 c -1.089,-0.342 -2.172,-0.7 -3.25,-1.066 v 0 c -0.046,-0.016 -0.093,-0.03 -0.139,-0.046 v 0 c -0.422,-0.137 -0.838,-0.283 -1.255,-0.436 v 0 c -0.457,-0.156 -0.915,-0.319 -1.367,-0.491 v 0 c -0.542,-0.191 -1.08,-0.399 -1.617,-0.606 v 0 c -0.339,-0.117 -0.68,-0.251 -1.015,-0.392 v 0 c -0.537,-0.2 -1.067,-0.417 -1.598,-0.633 v 0 c -0.451,-0.172 -0.905,-0.36 -1.36,-0.556 v 0 c -0.479,-0.193 -0.952,-0.393 -1.425,-0.603 v 0 c -1.985,-0.855 -3.944,-1.754 -5.871,-2.706 v 0 c -1.198,-0.597 -2.391,-1.211 -3.577,-1.834 v 0 c -1.102,-0.587 -2.197,-1.192 -3.279,-1.815 v 0 c -0.386,-0.214 -0.773,-0.436 -1.153,-0.668 v 0 c -0.599,-0.343 -1.191,-0.703 -1.784,-1.063 v 0 c -0.38,-0.23 -0.761,-0.469 -1.143,-0.709 v 0 c -0.513,-0.316 -1.012,-0.641 -1.521,-0.974 v 0 c -0.453,-0.292 -0.909,-0.593 -1.365,-0.901 v 0 c -1.044,-0.692 -2.076,-1.403 -3.094,-2.14 v 0 c -0.611,-0.428 -1.208,-0.867 -1.806,-1.315 v 0 c -0.535,-0.401 -1.06,-0.795 -1.579,-1.198 v 0 c -0.583,-0.45 -1.158,-0.908 -1.733,-1.367 v 0 c -3.541,-2.859 -6.905,-5.929 -10.06,-9.2 v 0 c -1.363,-1.423 -1.027,-3.385 0.144,-4.502 v 0 c 0.149,-0.135 0.305,-0.264 0.481,-0.378 v 0 c 0.343,-0.222 0.746,-0.378 1.177,-0.445 v 0 c 0.108,-0.015 0.224,-0.025 0.339,-0.035 v 0 c 0.003,0 0.005,-10e-4 0.007,-10e-4 v 0 c 0.12,-0.002 0.24,-0.004 0.355,0.011 v 0 c 0.22,0.023 0.452,0.068 0.68,0.145 v 0 c 2.564,0.808 5.527,1.659 8.846,2.472 v 0 c 0.058,0.008 0.116,0.023 0.167,0.039 v 0 h 0.002 l 0.005,-10e-4 c 0.592,0.143 1.194,0.293 1.807,0.424 v 0 c 1.016,0.232 2.069,0.464 3.149,0.695 v 0 c 0.364,0.073 0.73,0.154 1.094,0.227 v 0 c 0.19,0.036 0.382,0.079 0.58,0.113 v 0 c 0.109,0.022 0.227,0.041 0.338,0.064 v 0 c 0.562,0.107 1.13,0.214 1.706,0.319 v 0 c 0.807,0.15 1.624,0.293 2.456,0.432 v 0 c 0.788,0.133 1.583,0.261 2.392,0.383 v 0 c 0.048,0.007 0.093,0.016 0.141,0.022 v 0 c 0.305,0.051 0.618,0.1 0.929,0.141 v 0 c 0.313,0.049 0.624,0.09 0.935,0.131 v 0 c 0.517,0.074 1.027,0.15 1.549,0.207 v 0 c 0.64,0.088 1.294,0.165 1.947,0.242 v 0 c 0.114,0.007 0.236,0.02 0.351,0.035 v 0 c 0.043,0.005 0.088,0.009 0.13,0.013 v 0 c 0.613,0.072 1.23,0.137 1.847,0.194 v 0 c 0.157,0.015 0.322,0.026 0.48,0.041 v 0 c 0.984,0.096 1.981,0.182 2.991,0.259 v 0 c 0.204,0.015 0.4,0.038 0.605,0.052 v 0 c 0.661,0.053 1.328,0.097 2.001,0.134 v 0 c 0.031,0.002 0.06,0.005 0.09,0.007 v 0 c 0.292,0.02 0.584,0.039 0.883,0.05 v 0 c 0.77,0.052 1.555,0.086 2.337,0.112 v 0 c 0.072,-0.004 0.153,10e-4 0.226,0.005 v 0 c 0.865,0.037 1.736,0.066 2.613,0.077 v 0 c 1.095,0.019 2.213,0.034 3.337,0.032 v 0 c 0.842,-0.007 1.693,-0.008 2.541,-0.024 v 0 h 0.002 c 0.001,0 0,0 0.006,-0.002 v 0 c 0.858,-0.009 1.713,-0.035 2.584,-0.063 v 0 c 0.863,-0.026 1.741,-0.062 2.618,-0.107 v 0 h 10e-4 c 0,-10e-4 0,0 0.007,-10e-4 v 0 c 0.883,-0.046 1.759,-0.099 2.656,-0.163 v 0 l 0.057,-10e-4 c 0.928,-0.068 1.864,-0.146 2.808,-0.225 v 0 h 0.002 l -0.007,0.009 0.108,-0.016 0.141,-0.022 c 5.269,-0.47 10.741,-1.228 16.366,-2.363 v 0 h 0.002 l 0.116,-0.018 h 0.002 l 0.001,0.007 c 0,0 0.077,-0.019 0.194,-0.045 v 0 c 0.257,-0.055 0.716,-0.148 1.121,-0.234 v 0 c 0.172,-0.034 0.328,-0.066 0.459,-0.094 v 0 c 0.32,-0.064 0.63,-0.135 0.949,-0.208 v 0 c 0.28,-0.059 0.568,-0.118 0.846,-0.185 v 0 c 0.451,-0.101 0.9,-0.209 1.35,-0.318 v 0 c 0.458,-0.1 0.906,-0.216 1.363,-0.326 v 0 c 0.186,-0.044 0.365,-0.088 0.549,-0.14 v 0 c 0.665,-0.165 1.329,-0.338 2.002,-0.512 v 0 c 0.062,-0.01 0.116,-0.026 0.178,-0.044 v 0 c 0.609,-0.164 1.218,-0.328 1.827,-0.501 v 0 c 0.039,-0.006 0.078,-0.012 0.115,-0.034 v 0 c 0.678,-0.191 1.355,-0.382 2.039,-0.582 v 0 c 0.509,-0.142 1.032,-0.293 1.546,-0.452 v 0 c 1.235,-0.379 2.475,-0.776 3.721,-1.191 v 0 c 0.627,-0.207 1.253,-0.422 1.879,-0.638 v 0 c 0.625,-0.215 1.25,-0.439 1.881,-0.671 v 0 c 2.512,-0.903 5.045,-1.89 7.595,-2.967 v 0 c 0.634,-0.265 1.275,-0.538 1.915,-0.821 v 0 c 0.543,-0.234 1.092,-0.478 1.639,-0.73 v 0 c 0.731,-0.319 1.467,-0.656 2.2,-1.008 v 0 c 0.645,-0.299 1.289,-0.605 1.932,-0.92 v 0 c 1.436,-0.692 2.884,-1.417 4.335,-2.175 v 0 c 1.794,-0.931 3.59,-1.902 5.393,-2.93 v 0 c 0.443,-0.252 0.886,-0.504 1.329,-0.764 v 0 c 0.937,-0.543 1.88,-1.096 2.821,-1.673 v 0 c 0.574,-0.343 1.147,-0.695 1.727,-1.056 v 0 c 0.653,-0.404 1.313,-0.817 1.964,-1.238 v 0 c 0.505,-0.317 1.002,-0.641 1.506,-0.975 v 0 c 0.483,-0.306 0.966,-0.62 1.446,-0.95 v 0 c 0.329,-0.21 0.664,-0.438 0.99,-0.664 v 0 c 0.103,-0.064 0.213,-0.137 0.315,-0.209 v 0 c 0.553,-0.372 1.114,-0.755 1.665,-1.144 v 0 c 0.261,-0.183 0.523,-0.36 0.776,-0.543 v 0 c 0.253,-0.183 0.507,-0.358 0.762,-0.541 v 0 c 0.281,-0.203 0.564,-0.407 0.846,-0.61 v 0 c 0.722,-0.527 1.43,-1.053 2.122,-1.575 v 0 c 0.966,-0.724 1.905,-1.461 2.822,-2.195 v 0 c 0.458,-0.366 0.908,-0.731 1.351,-1.096 v 0 c 0.1,-0.079 0.2,-0.166 0.3,-0.245 v 0 c 0.35,-0.287 0.683,-0.578 1.025,-0.863 v 0 c 0.426,-0.37 0.859,-0.74 1.277,-1.109 v 0 c 0.419,-0.369 0.829,-0.737 1.237,-1.111 v 0 c 0.41,-0.367 0.812,-0.734 1.205,-1.106 v 0 c 0.353,-0.327 0.703,-0.661 1.046,-0.995 v 0 c 0.426,-0.417 0.852,-0.835 1.264,-1.243 v 0 c 0.292,-0.301 0.584,-0.594 0.869,-0.886 v 0 c 0.799,-0.828 1.563,-1.659 2.305,-2.486 v 0 c 0.337,-0.372 0.665,-0.751 0.985,-1.129 v 0 c 0.718,-0.872 1.406,-1.739 2.056,-2.592 v 0 c 0.086,-0.118 0.166,-0.226 0.253,-0.336 v 0 c 0.017,-0.023 0.034,-0.046 0.051,-0.069 v 0 c 3.995,-5.177 6.878,-10.43 8.695,-15.724 v 0 c 0.011,-0.032 0.025,-0.065 0.037,-0.096 v 0 c 0.039,-0.103 0.072,-0.205 0.106,-0.306 v 0 c 0.266,-0.73 0.496,-1.44 0.711,-2.139 v 0 l 0.055,-0.168 c 1.434,-5.253 1.844,-10.542 1.264,-15.85 v 0 c 10.902,8.03 22.089,6.195 25.027,9.58 v 0 c 0,0 0.009,0.006 0.018,0.013 v 0 c 3.726,4.292 15.407,15.222 14.273,41.987 v 0 c 0,-1.004 -0.045,-1.51 -0.045,-1.51 v 0 c -6.264,28.563 -28.879,45.972 -30.317,47.063 v 0 c -0.003,10e-4 -0.004,0.003 -0.008,0.004 v 0 c -0.028,0.021 -0.042,0.03 -0.058,0.041 v 0 l -0.014,0.01 c -15.143,8.946 -31.511,15.268 -48.213,19.015 v 0 c -0.792,0.176 -1.594,0.346 -2.387,0.514 v 0 c -0.076,0.021 -0.164,0.034 -0.241,0.053 v 0 c -0.716,0.149 -1.434,0.29 -2.15,0.431 v 0 c -1.514,0.294 -3.022,0.563 -4.533,0.817 v 0 c -1.44,0.242 -2.885,0.461 -4.323,0.663 v 0 l -0.179,0.028 c -0.002,0 -0.004,0 -0.007,0 v 0 c -1.899,0.256 -3.803,0.489 -5.703,0.689 v 0 c -0.003,0 -0.004,10e-4 -0.007,10e-4 v 0 c -0.584,0.065 -1.17,0.122 -1.747,0.177 v 0 c -0.063,0.01 -0.134,0.02 -0.215,0.017 v 0 c -0.023,0.003 -0.055,0.008 -0.079,0.003 v 0 c 0,0 -0.002,0 -0.002,10e-4 v 0 l -0.006,0.001 c -0.736,0.079 -1.479,0.144 -2.22,0.193 v 0 h -10e-4 l -0.037,0.005 c -0.636,0.048 -1.27,0.096 -1.899,0.135 v 0 c -1.08,0.076 -2.163,0.136 -3.248,0.188 v 0 c -0.716,0.036 -1.435,0.065 -2.154,0.087 v 0 c -0.702,0.026 -1.399,0.043 -2.103,0.062 v 0 c -0.408,0.005 -0.815,0.019 -1.233,0.018 v 0 c -0.943,0.016 -1.887,0.022 -2.832,0.022 v 0 c -0.195,0 -0.391,0 -0.586,-10e-4"
               style="fill:url(#linearGradient154);stroke:none"
               id="path156" /></g></g></g></g><g
       id="g158"
       transform="matrix(0.86595373,0,0,0.86595373,-175.04599,51.28808)"><g
         id="g160"
         clip-path="url(#clipPath164)"><g
           id="g166"><g
             id="g168" /><g
             id="g194"
             mask="url(#mask182)"><g
               id="g196"><path
                 d="m 545.672,739.678 -10e-4,-0.009 -0.09,-0.114 -31.888,-43.409 -0.011,-0.022 -0.06,-0.079 -8.764,-11.935 c 1.586,-1.766 2.996,-3.594 4.195,-5.317 v 0 c 1.57,-2.246 2.78,-4.325 3.587,-5.893 v 0 c 4.079,-7.989 17.163,-18.855 31.478,-25.372 v 0 c 11.731,-5.344 16.107,-22.436 15.603,-32.316 v 0 c 0.752,1.258 1.818,2.88 3.18,4.608 v 0 c 0.059,0.071 0.119,0.15 0.178,0.222 v 0 c 0.091,0.123 0.189,0.236 0.287,0.358 v 0 c 0.068,0.078 0.13,0.165 0.2,0.251 v 0 c 0.381,0.455 0.782,0.925 1.215,1.389 v 0 c 0.049,0.065 0.106,0.121 0.163,0.184 v 0 c 1.551,1.7 3.366,3.399 5.457,4.905 v 0 c 0.038,0.034 0.082,0.059 0.127,0.094 v 0 c 10.902,8.028 22.09,6.194 25.027,9.577 v 0 l 0.018,0.015 c 2.239,2.583 7.354,7.555 10.823,16.921 v 0 c 0.138,0.388 0.287,0.783 0.42,1.189 v 0 c 0.142,0.404 0.277,0.817 0.413,1.238 v 0 c 0.129,0.421 0.258,0.851 0.379,1.282 v 0 c 0.131,0.439 0.247,0.886 0.364,1.335 v 0 c 0.241,0.903 0.456,1.842 0.652,2.815 v 0 c 0.091,0.444 0.176,0.897 0.262,1.358 v 0 c 0.012,0.078 0.03,0.147 0.042,0.226 v 0 c 0.077,0.454 0.157,0.924 0.228,1.394 v 0 l 0.011,0.072 c 0.077,0.51 0.148,1.029 0.212,1.558 v 0 c 0.042,0.33 0.086,0.668 0.121,1.008 v 0 c 0.031,0.309 0.069,0.616 0.093,0.934 v 0 c 0.084,0.862 0.154,1.751 0.203,2.658 v 0 c 0.026,0.439 0.046,0.885 0.067,1.339 v 0 c 0.04,0.902 0.052,1.823 0.059,2.77 v 0 c -10e-4,0.417 10e-4,0.85 -0.006,1.285 v 0 c -0.007,0.427 -0.013,0.869 -0.027,1.305 v 0 c 0,0 10e-4,0.008 0.002,0.016 v 0 c 0.297,0.894 1.166,4.608 -0.918,13.845 v 0 c -0.008,0.049 -0.023,0.108 -0.031,0.157 v 0 c -0.234,0.999 -0.491,2.058 -0.794,3.188 v 0 l 0.002,0.007 c -0.866,3.239 -2.041,7.031 -3.634,11.456 v 0 c 0,0 0.001,0.008 -0.006,0.009 v 0 c -0.34,0.935 -0.691,1.903 -1.07,2.9 v 0 c -0.023,0.06 -0.046,0.12 -0.069,0.179 v 0 c -0.235,0.621 -0.477,1.245 -0.726,1.885 v 0 c -2.134,5.462 -5.197,10.624 -8.714,15.381 v 0 c -3.096,3.144 -7.116,5.754 -12.532,7.635 v 0 c -18.488,6.418 -16.49,-2.267 -28.724,15.053 v 0 z"
                 style="fill:url(#linearGradient204);stroke:none"
                 id="path206" /></g></g></g></g></g><g
       id="g208"
       transform="matrix(0.86595373,0,0,0.86595373,-175.04599,51.28808)"><g
         id="g210"
         clip-path="url(#clipPath214)"><g
           id="g216"><g
             id="g218" /><g
             id="g244"
             mask="url(#mask232)"><g
               id="g246"><path
                 d="m 604.318,705.942 -0.612,-4.139 4.577,-10.104 0.27,-0.603 c 0.294,-1.812 0.535,-3.567 0.726,-5.266 v 0 c 0.273,-2.385 0.449,-4.661 0.539,-6.826 v 0 c 0.006,-0.009 0.005,-0.017 0.003,-0.024 v 0 c 0.013,-0.235 0.019,-0.461 0.023,-0.695 v 0 c -0.005,-0.039 -0.003,-0.079 0,-0.113 v 0 c 0.877,-26.179 -10.607,-36.93 -14.294,-41.18 v 0 c -0.009,-0.007 -0.019,-0.013 -0.019,-0.013 v 0 c -2.936,-3.376 -14.093,-1.555 -24.982,-9.546 v 0 l -0.045,-0.033 c -0.017,-0.014 -0.035,-0.019 -0.044,-0.025 v 0 l -0.036,-0.027 c 0,0 -0.009,-0.007 -0.018,-0.014 v 0 c -2.217,-1.647 -4.424,-3.696 -6.552,-6.296 v 0 c -0.031,-0.043 -0.071,-0.094 -0.101,-0.137 v 0 c -1.4,-1.706 -2.745,-3.646 -4.043,-5.85 v 0 c -0.803,-1.372 -1.589,-2.85 -2.344,-4.438 v 0 c -0.505,-1.056 -0.994,-2.162 -1.476,-3.324 v 0 c -12.847,-31.115 -45.079,-28.112 -78.92,-34.498 v 0 c -31.312,-5.92 -59.817,-50.949 -63.81,-57.522 v 0 c 3.835,0.879 9.763,1.831 14.123,3.43 v 0 c 25.958,9.522 59.731,20.126 102.353,40.608 v 0 c 14.414,6.926 29.719,15.511 44.601,25.18 v 0 c 11.991,7.789 21.937,14.93 29.739,22.104 v 0 c 0.386,0.367 0.769,0.727 1.151,1.078 v 0 c 0.384,0.36 0.759,0.72 1.126,1.074 v 0 c 1.215,1.173 2.379,2.337 3.493,3.493 v 0 c 27.33,28.507 24.002,53.349 14.948,70.308 v 0 c -0.025,0.044 -0.043,0.086 -0.068,0.13 v 0 c -7.717,14.38 -19.513,23.059 -20.099,23.485 v 0 c -0.013,0.01 -0.02,0.019 -0.02,0.019 v 0 z"
                 style="fill:url(#linearGradient254);stroke:none"
                 id="path256" /></g></g></g></g></g><g
       id="g258"
       transform="matrix(0.86595373,0,0,0.86595373,-175.04599,51.28808)"><g
         id="g260"><g
           id="g266"><g
             id="g268"><path
               d="m 498.362,502.727 c -0.851,-0.73 -0.648,-2.108 0.365,-2.554 v 0 c 4.173,-1.864 7.577,-5.308 9.238,-9.928 v 0 c 1.054,-2.998 1.257,-6.159 0.649,-9.077 v 0 c -0.162,-0.932 0.446,-1.782 1.296,-1.905 v 0 h 0.486 c 19.978,3.283 34.323,11.185 42.468,15.156 v 0 c 9.118,4.457 21.962,23.422 13.454,29.419 v 0 c -2.675,1.905 5.712,13.372 -9.24,15.641 v 0 c -0.689,0.082 -1.458,0.163 -2.269,0.243 v 0 c -0.468,0.038 -0.937,0.056 -1.414,0.056 v 0 C 537,539.776 515.097,517.807 498.362,502.727"
               style="fill:url(#linearGradient280);stroke:none"
               id="path282" /></g></g></g></g><g
       id="g284"
       transform="matrix(0.86595373,0,0,0.86595373,364.40585,303.17941)"
       style="fill:#17c6ec;fill-opacity:1;stroke:none;stroke-opacity:1"><g
         id="g44838"
         style="fill:#17c6ec;fill-opacity:1"><g
           id="g292"
           transform="translate(186.9111,256.1104)"
           style="fill:#17c6ec;fill-opacity:1;stroke:none;stroke-width:0.999728;stroke-miterlimit:4;stroke-dasharray:none;stroke-opacity:1"><path
             d="M 0,0 H -23.3 V 93.524 H 0.202 c 28.123,0 39.549,-21.557 39.549,-45.02 C 39.751,20.504 27.555,0 0,0 M 2.634,118.607 H -54.38 V -25.083 H 1.296 c 44.007,0 70.549,31.729 70.549,73.668 0,42.468 -27.352,70.022 -69.211,70.022"
             style="fill:#17c6ec;fill-opacity:1;fill-rule:nonzero;stroke:none;stroke-width:0.999728;stroke-miterlimit:4;stroke-dasharray:none;stroke-opacity:1"
             id="path294" /></g><g
           id="g296"
           transform="translate(365.3691,255.0156)"
           style="fill:#17c6ec;fill-opacity:1;stroke:none;stroke-width:0.999728;stroke-miterlimit:4;stroke-dasharray:none;stroke-opacity:1"><path
             d="m 0,0 h -28.041 v 39.022 h 27.838 c 17.1,0 24.597,-7.375 24.597,-18.963 C 24.394,7.011 16.776,0 0,0 M -28.041,95.713 H 1.58 c 11.954,0 19.937,-5.43 19.937,-15.966 0,-10.09 -6.078,-16.735 -20.829,-16.735 H -28.041 Z M 33.836,51.787 c 9.725,4.458 18.315,14.953 18.315,31.161 0,18.681 -13.21,36.754 -47.896,36.754 H -58.554 V -23.988 H 6.362 c 30.553,0 49.882,18.437 49.882,43.034 0,18.883 -12.723,29.095 -22.408,32.741"
             style="fill:#17c6ec;fill-opacity:1;fill-rule:nonzero;stroke:none;stroke-width:0.999728;stroke-miterlimit:4;stroke-dasharray:none;stroke-opacity:1"
             id="path298" /></g><path
           d="M 568.608,374.731 H 466.707 v -25.47 h 101.901 z"
           style="fill:#17c6ec;fill-opacity:1;fill-rule:nonzero;stroke:none;stroke-width:0.999728;stroke-miterlimit:4;stroke-dasharray:none;stroke-opacity:1"
           id="path300" /><g
           id="g302"
           transform="translate(496.8633,293.002)"
           style="fill:#17c6ec;fill-opacity:1;stroke:none;stroke-width:0.999728;stroke-miterlimit:4;stroke-dasharray:none;stroke-opacity:1"><path
             d="M 0,0 H 68.727 V 25.468 H -30.156 V -61.98 H 72.128 l 3.687,25.469 H 0 Z"
             style="fill:#17c6ec;fill-opacity:1;fill-rule:nonzero;stroke:none;stroke-width:0.999728;stroke-miterlimit:4;stroke-dasharray:none;stroke-opacity:1"
             id="path304" /></g><path
           d="M 717.659,374.731 H 615.757 v -25.47 h 101.902 z"
           style="fill:#17c6ec;fill-opacity:1;fill-rule:nonzero;stroke:none;stroke-width:0.999728;stroke-miterlimit:4;stroke-dasharray:none;stroke-opacity:1"
           id="path306" /><g
           id="g308"
           transform="translate(645.9131,293.002)"
           style="fill:#17c6ec;fill-opacity:1;stroke:none;stroke-width:0.999728;stroke-miterlimit:4;stroke-dasharray:none;stroke-opacity:1"><path
             d="M 0,0 H 68.728 V 25.468 H -30.156 V -61.98 H 72.128 l 3.687,25.469 H 0 Z"
             style="fill:#17c6ec;fill-opacity:1;fill-rule:nonzero;stroke:none;stroke-width:0.999728;stroke-miterlimit:4;stroke-dasharray:none;stroke-opacity:1"
             id="path310" /></g><g
           id="g312"
           transform="translate(795.8828,256.4912)"
           style="fill:#17c6ec;fill-opacity:1;stroke:none;stroke-width:0.999728;stroke-miterlimit:4;stroke-dasharray:none;stroke-opacity:1"><path
             d="M 0,0 V 118.24 H -31.074 V -25.47 H 68.033 L 71.587,0 Z"
             style="fill:#17c6ec;fill-opacity:1;fill-rule:nonzero;stroke:none;stroke-width:0.999728;stroke-miterlimit:4;stroke-dasharray:none;stroke-opacity:1"
             id="path314" /></g></g></g><path
       style="fill:#ffffff;stroke:#ffffff;stroke-width:0.43509"
       d="m 263.53828,461.32292 c -2.9052,1.43806 -3.80693,3.30768 -3.87149,8.027 -0.0729,5.33279 -0.91229,6.96568 -4.89182,9.51649 -3.32924,2.134 -4.40878,3.81215 -4.40878,6.85354 0,1.04441 0.34263,2.51447 0.7614,3.2668 1.23118,2.21177 18.78763,17.94036 26.4036,23.65459 11.06953,8.30544 18.94696,11.76551 26.7861,11.76551 6.29499,0 10.84687,-1.64873 13.79331,-4.99606 2.10709,-2.39378 2.90038,-4.76242 2.93764,-8.77136 0.0187,-2.01296 0.2646,-3.43723 0.71366,-4.13336 1.77463,-2.75103 2.25086,-7.91584 1.0843,-11.7592 -1.61584,-5.32347 -5.48612,-11.26089 -10.35529,-15.88613 -2.60141,-2.47108 -4.36459,-3.65185 -8.86484,-5.93661 -10.89013,-5.52888 -20.65753,-9.15292 -30.68761,-11.3862 -6.11496,-1.36153 -7.04111,-1.38272 -9.40018,-0.21501 z m 12.42651,6.73817 c 7.21317,1.84219 15.97301,5.26438 24.39566,9.53061 5.8271,2.95155 6.75624,3.58498 9.50862,6.48252 5.38113,5.66494 8.20056,11.54423 7.85135,16.37221 -0.14998,2.07337 -0.42422,2.85151 -1.34289,3.81042 -1.10283,1.15108 -1.15022,1.39248 -1.05994,5.39938 0.11184,4.96372 -0.41086,6.02383 -3.80927,7.72583 -2.58953,1.29689 -8.2002,1.72549 -11.92134,0.91067 -8.59402,-1.88185 -19.44783,-9.55891 -38.66987,-27.3518 -5.42302,-5.01981 -5.88119,-5.95774 -3.48073,-7.12556 2.60898,-1.26925 5.03835,-3.78467 6.47642,-6.70577 1.21392,-2.46583 1.40563,-3.31894 1.43808,-6.39931 0.0205,-1.95481 0.20486,-3.81771 0.40943,-4.13975 0.48194,-0.7586 2.62132,-0.44611 10.20448,1.49055 z"
       id="path1205" /><path
       style="fill:#ffffff;stroke:#ffffff;stroke-width:0.43509"
       d="m 175.42199,457.891 c -1.5827,0.41926 -2.25365,1.21594 -1.02402,1.21594 0.33416,0 1.21521,0.69208 1.95791,1.53795 1.03078,1.174 1.35033,1.95133 1.35033,3.28478 0,3.48873 -2.13642,5.61941 -5.63456,5.61941 -0.96908,0 -1.76195,0.17301 -1.76195,0.38448 0,0.84233 3.54074,3.51396 5.27656,3.98136 4.56768,1.22996 9.48288,-2.03104 10.19235,-6.76212 0.87143,-5.81104 -4.67126,-10.7678 -10.35662,-9.2618 z"
       id="path1244"
       inkscape:export-filename="/home/tony/Documents/path1244.png"
       inkscape:export-xdpi="96"
       inkscape:export-ydpi="96" /></g></svg>
